<svg width="542" height="504" viewBox="0 0 542 504" fill="none" xmlns="http://www.w3.org/2000/svg">
<g filter="url(#filter0_f_5017_1280)">
<path d="M420.304 252C420.304 176.967 353.458 116.14 271 116.14C188.542 116.14 121.696 176.967 121.696 252C121.696 327.033 188.542 387.86 271 387.86V444C154.468 444 60 358.039 60 252C60 145.961 154.468 60 271 60C387.532 60 482 145.961 482 252C482 358.039 387.532 444 271 444V387.86C353.458 387.86 420.304 327.033 420.304 252Z" fill="#4D5AFF"/>
</g>
<g filter="url(#filter1_f_5017_1280)">
<path d="M420.304 252C420.304 185.955 353.458 132.415 271 132.415C188.542 132.415 121.696 185.955 121.696 252C121.696 318.045 188.542 371.585 271 371.585V421C154.468 421 60 345.336 60 252C60 158.664 154.468 83 271 83C387.532 83 482 158.664 482 252C482 345.336 387.532 421 271 421V371.585C353.458 371.585 420.304 318.045 420.304 252Z" fill="url(#paint0_linear_5017_1280)"/>
</g>
<g filter="url(#filter2_df_5017_1280)">
<ellipse cx="271" cy="231" rx="142" ry="134" fill="url(#paint1_radial_5017_1280)" fill-opacity="0.8" shape-rendering="crispEdges"/>
<path d="M271 98.5C348.679 98.5 411.5 157.903 411.5 231C411.5 304.097 348.679 363.5 271 363.5C193.321 363.5 130.5 304.097 130.5 231C130.5 157.903 193.321 98.5 271 98.5Z" stroke="#FCF7EB" stroke-opacity="0.6" stroke-width="3" shape-rendering="crispEdges"/>
</g>
<g filter="url(#filter3_df_5017_1280)">
<circle cx="271" cy="221" r="102" fill="url(#paint2_radial_5017_1280)"/>
<circle cx="271" cy="221" r="100.5" stroke="#FCF7EB" stroke-width="3"/>
</g>
<defs>
<filter id="filter0_f_5017_1280" x="0" y="0" width="542" height="504" filterUnits="userSpaceOnUse" color-interpolation-filters="sRGB">
<feFlood flood-opacity="0" result="BackgroundImageFix"/>
<feBlend mode="normal" in="SourceGraphic" in2="BackgroundImageFix" result="shape"/>
<feGaussianBlur stdDeviation="30" result="effect1_foregroundBlur_5017_1280"/>
</filter>
<filter id="filter1_f_5017_1280" x="20" y="43" width="502" height="418" filterUnits="userSpaceOnUse" color-interpolation-filters="sRGB">
<feFlood flood-opacity="0" result="BackgroundImageFix"/>
<feBlend mode="normal" in="SourceGraphic" in2="BackgroundImageFix" result="shape"/>
<feGaussianBlur stdDeviation="20" result="effect1_foregroundBlur_5017_1280"/>
</filter>
<filter id="filter2_df_5017_1280" x="99" y="67" width="344" height="328" filterUnits="userSpaceOnUse" color-interpolation-filters="sRGB">
<feFlood flood-opacity="0" result="BackgroundImageFix"/>
<feColorMatrix in="SourceAlpha" type="matrix" values="0 0 0 0 0 0 0 0 0 0 0 0 0 0 0 0 0 0 127 0" result="hardAlpha"/>
<feOffset dy="-2"/>
<feGaussianBlur stdDeviation="3"/>
<feComposite in2="hardAlpha" operator="out"/>
<feColorMatrix type="matrix" values="0 0 0 0 0.988235 0 0 0 0 0.968627 0 0 0 0 0.921569 0 0 0 1 0"/>
<feBlend mode="normal" in2="BackgroundImageFix" result="effect1_dropShadow_5017_1280"/>
<feBlend mode="normal" in="SourceGraphic" in2="effect1_dropShadow_5017_1280" result="shape"/>
<feGaussianBlur stdDeviation="15" result="effect2_foregroundBlur_5017_1280"/>
</filter>
<filter id="filter3_df_5017_1280" x="149" y="94" width="244" height="244" filterUnits="userSpaceOnUse" color-interpolation-filters="sRGB">
<feFlood flood-opacity="0" result="BackgroundImageFix"/>
<feColorMatrix in="SourceAlpha" type="matrix" values="0 0 0 0 0 0 0 0 0 0 0 0 0 0 0 0 0 0 127 0" result="hardAlpha"/>
<feOffset dy="-5"/>
<feGaussianBlur stdDeviation="10"/>
<feComposite in2="hardAlpha" operator="out"/>
<feColorMatrix type="matrix" values="0 0 0 0 0.988235 0 0 0 0 0.968627 0 0 0 0 0.921569 0 0 0 1 0"/>
<feBlend mode="normal" in2="BackgroundImageFix" result="effect1_dropShadow_5017_1280"/>
<feBlend mode="normal" in="SourceGraphic" in2="effect1_dropShadow_5017_1280" result="shape"/>
<feGaussianBlur stdDeviation="0.5" result="effect2_foregroundBlur_5017_1280"/>
</filter>
<linearGradient id="paint0_linear_5017_1280" x1="271" y1="83" x2="271" y2="421" gradientUnits="userSpaceOnUse">
<stop stop-color="#858EFF" stop-opacity="0.5"/>
<stop offset="1" stop-color="#505599"/>
</linearGradient>
<radialGradient id="paint1_radial_5017_1280" cx="0" cy="0" r="1" gradientUnits="userSpaceOnUse" gradientTransform="translate(271 230.52) rotate(-90) scale(124.875 142)">
<stop stop-color="#3B44B3"/>
<stop offset="0.350962" stop-color="#485FD9"/>
<stop offset="0.75" stop-color="#5689FF"/>
<stop offset="1" stop-color="#FCF7EB"/>
</radialGradient>
<radialGradient id="paint2_radial_5017_1280" cx="0" cy="0" r="1" gradientUnits="userSpaceOnUse" gradientTransform="translate(271 220.634) rotate(-90) scale(95.0538 102)">
<stop stop-color="#3B44B3"/>
<stop offset="0.35" stop-color="#485FD9"/>
<stop offset="0.7" stop-color="#5689FF"/>
<stop offset="1" stop-color="#FCF7EB"/>
</radialGradient>
</defs>
</svg>
