<svg width="1920" height="967" viewBox="0 0 1920 967" fill="none" xmlns="http://www.w3.org/2000/svg">
<g filter="url(#filter0_f_5088_125)">
<ellipse cx="960" cy="591" rx="1438" ry="491" fill="#4D5AFF"/>
</g>
<g filter="url(#filter1_f_5088_125)">
<ellipse cx="960" cy="582.5" rx="1882" ry="456.5" fill="#959DFF"/>
</g>
<g filter="url(#filter2_f_5088_125)">
<path d="M2600 582.992C2600 832.629 1865.75 1035 960 1035C54.253 1035 -680 832.629 -680 582.992C-680 333.355 54.253 124 960 124C1865.75 124 2600 333.355 2600 582.992Z" fill="#FFFAEE" fill-opacity="0.5"/>
</g>
<ellipse cx="960" cy="603" rx="1882" ry="453" fill="#0C0C52"/>
<g filter="url(#filter3_f_5088_125)">
<ellipse cx="960" cy="616" rx="2952" ry="356" fill="#00021C"/>
</g>
<g filter="url(#filter4_f_5088_125)">
<path d="M2842 603C2842 352.815 1999.4 150 960 150C-79.3999 150 -922 352.815 -922 603" stroke="white" stroke-width="3"/>
</g>
<g filter="url(#filter5_d_5088_125)">
<path d="M172 191.31C433.3 158.06 697.02 145.47 960.34 145C1223.66 145.46 1487.39 158.05 1748.68 191.31C1224.63 143.1 696.05 143.08 172 191.31Z" fill="url(#paint0_linear_5088_125)"/>
</g>
<defs>
<filter id="filter0_f_5088_125" x="-578" y="0" width="3076" height="1182" filterUnits="userSpaceOnUse" color-interpolation-filters="sRGB">
<feFlood flood-opacity="0" result="BackgroundImageFix"/>
<feBlend mode="normal" in="SourceGraphic" in2="BackgroundImageFix" result="shape"/>
<feGaussianBlur stdDeviation="50" result="effect1_foregroundBlur_5088_125"/>
</filter>
<filter id="filter1_f_5088_125" x="-972" y="76" width="3864" height="1013" filterUnits="userSpaceOnUse" color-interpolation-filters="sRGB">
<feFlood flood-opacity="0" result="BackgroundImageFix"/>
<feBlend mode="normal" in="SourceGraphic" in2="BackgroundImageFix" result="shape"/>
<feGaussianBlur stdDeviation="25" result="effect1_foregroundBlur_5088_125"/>
</filter>
<filter id="filter2_f_5088_125" x="-730" y="74" width="3380" height="1011" filterUnits="userSpaceOnUse" color-interpolation-filters="sRGB">
<feFlood flood-opacity="0" result="BackgroundImageFix"/>
<feBlend mode="normal" in="SourceGraphic" in2="BackgroundImageFix" result="shape"/>
<feGaussianBlur stdDeviation="25" result="effect1_foregroundBlur_5088_125"/>
</filter>
<filter id="filter3_f_5088_125" x="-2192" y="60" width="6304" height="1112" filterUnits="userSpaceOnUse" color-interpolation-filters="sRGB">
<feFlood flood-opacity="0" result="BackgroundImageFix"/>
<feBlend mode="normal" in="SourceGraphic" in2="BackgroundImageFix" result="shape"/>
<feGaussianBlur stdDeviation="100" result="effect1_foregroundBlur_5088_125"/>
</filter>
<filter id="filter4_f_5088_125" x="-926.5" y="145.5" width="3773" height="460.5" filterUnits="userSpaceOnUse" color-interpolation-filters="sRGB">
<feFlood flood-opacity="0" result="BackgroundImageFix"/>
<feBlend mode="normal" in="SourceGraphic" in2="BackgroundImageFix" result="shape"/>
<feGaussianBlur stdDeviation="1.5" result="effect1_foregroundBlur_5088_125"/>
</filter>
<filter id="filter5_d_5088_125" x="162" y="135" width="1596.68" height="66.3101" filterUnits="userSpaceOnUse" color-interpolation-filters="sRGB">
<feFlood flood-opacity="0" result="BackgroundImageFix"/>
<feColorMatrix in="SourceAlpha" type="matrix" values="0 0 0 0 0 0 0 0 0 0 0 0 0 0 0 0 0 0 127 0" result="hardAlpha"/>
<feOffset/>
<feGaussianBlur stdDeviation="5"/>
<feComposite in2="hardAlpha" operator="out"/>
<feColorMatrix type="matrix" values="0 0 0 0 1 0 0 0 0 1 0 0 0 0 1 0 0 0 1 0"/>
<feBlend mode="normal" in2="BackgroundImageFix" result="effect1_dropShadow_5088_125"/>
<feBlend mode="normal" in="SourceGraphic" in2="effect1_dropShadow_5088_125" result="shape"/>
</filter>
<linearGradient id="paint0_linear_5088_125" x1="172" y1="168.155" x2="1748.68" y2="168.155" gradientUnits="userSpaceOnUse">
<stop stop-color="#E6E7F2"/>
<stop offset="0.5" stop-color="white"/>
<stop offset="1" stop-color="#E6E7F2"/>
</linearGradient>
</defs>
</svg>
