<svg width="823" height="824" viewBox="0 0 823 824" fill="none" xmlns="http://www.w3.org/2000/svg">
<g filter="url(#filter0_f_2870_715)">
<circle cx="291.5" cy="291.5" r="291.5" transform="matrix(-1 0 0 1 703 120.906)" fill="url(#paint0_linear_2870_715)" fill-opacity="0.35"/>
</g>
<g filter="url(#filter1_d_2870_715)">
<g filter="url(#filter2_i_2870_715)">
<path d="M448.156 593.057H407.379C392.458 592.349 380.583 580.978 380.583 566.951C380.583 552.925 393.175 540.846 408.813 540.846H410.516C424.989 540.846 436.685 529.253 436.685 515.005C436.685 500.714 424.945 489.165 410.516 489.165H323.272C308.35 488.457 296.475 477.086 296.475 463.059C296.475 449.033 309.067 436.954 324.705 436.954H332.233C346.707 436.954 358.402 425.361 358.402 411.113C358.402 396.866 346.662 385.273 332.233 385.273H313.862C298.94 384.565 287.065 373.194 287.065 359.168C287.065 345.141 299.657 333.062 315.295 333.062H322.062C336.535 333.062 348.231 321.469 348.231 307.222C348.231 292.974 336.49 281.381 322.062 281.381H209.186C194.713 281.381 183.017 292.974 183.017 307.222C183.017 321.469 194.757 333.062 209.186 333.062H224.466C240.105 333.062 252.696 344.787 252.696 359.168C252.696 373.548 240.867 384.565 225.9 385.273H180.642C166.169 385.273 154.474 396.866 154.474 411.113C154.474 425.361 166.214 436.954 180.642 436.954H211.696C227.334 436.954 239.926 448.679 239.926 463.059C239.926 477.44 228.096 488.457 213.129 489.165H209.186C194.713 489.165 183.017 500.758 183.017 515.005C183.017 529.297 194.757 540.846 209.186 540.846H324.213C339.851 540.846 352.443 552.571 352.443 566.951C352.443 581.332 340.613 592.349 325.646 593.057H325.109C310.635 593.057 298.94 604.65 298.94 618.897C298.94 633.189 310.68 644.738 325.109 644.738H448.156C462.63 644.738 474.325 633.145 474.325 618.897C474.325 604.606 462.585 593.057 448.156 593.057Z" fill="url(#paint1_linear_2870_715)" fill-opacity="0.8"/>
</g>
<path d="M562.647 665.267C589.375 665.267 611.042 643.872 611.042 617.48C611.042 591.088 589.375 569.693 562.647 569.693C535.92 569.693 514.253 591.088 514.253 617.48C514.253 643.872 535.92 665.267 562.647 665.267Z" fill="url(#paint2_linear_2870_715)"/>
<path d="M280.567 250.144C295.02 250.144 306.736 238.575 306.736 224.304C306.736 210.032 295.02 198.463 280.567 198.463C266.115 198.463 254.398 210.032 254.398 224.304C254.398 238.575 266.115 250.144 280.567 250.144Z" fill="url(#paint3_linear_2870_715)"/>
<path d="M411.46 444.297C429.773 444.297 444.619 429.638 444.619 411.554C444.619 393.471 429.773 378.812 411.46 378.812C393.147 378.812 378.301 393.471 378.301 411.554C378.301 429.638 393.147 444.297 411.46 444.297Z" fill="url(#paint4_linear_2870_715)"/>
<g filter="url(#filter3_i_2870_715)">
<path d="M376.643 228.992H417.419C432.341 229.7 444.216 241.072 444.216 255.098C444.216 269.124 431.624 281.204 415.985 281.204H414.283C399.809 281.204 388.114 292.797 388.114 307.044C388.114 321.336 399.854 332.884 414.283 332.884H501.527C516.449 333.592 528.323 344.964 528.323 358.99C528.323 373.016 515.732 385.096 500.093 385.096H492.565C478.092 385.096 466.396 396.689 466.396 410.936C466.396 425.184 478.136 436.776 492.565 436.776H510.937C525.859 437.484 537.733 448.856 537.733 462.882C537.733 476.908 525.142 488.988 509.503 488.988H502.737C488.263 488.988 476.568 500.58 476.568 514.828C476.568 529.075 488.308 540.668 502.737 540.668H615.657C630.131 540.668 641.826 529.075 641.826 514.828C641.826 500.58 630.086 488.988 615.657 488.988H600.377C584.739 488.988 572.147 477.262 572.147 462.882C572.147 448.502 583.977 437.484 598.943 436.776H644.201C658.674 436.776 670.37 425.184 670.37 410.936C670.37 396.689 658.63 385.096 644.201 385.096H613.148C597.509 385.096 584.918 373.37 584.918 358.99C584.918 344.61 596.748 333.592 611.714 332.884H615.657C630.131 332.884 641.826 321.292 641.826 307.044C641.826 292.752 630.086 281.204 615.657 281.204H500.631C484.992 281.204 472.401 269.478 472.401 255.098C472.401 240.718 484.231 229.7 499.197 228.992H499.735C514.208 228.992 525.903 217.4 525.903 203.152C525.903 188.86 514.163 177.312 499.735 177.312H376.687C362.214 177.312 350.519 188.905 350.519 203.152C350.519 217.444 362.259 228.992 376.687 228.992H376.643Z" fill="url(#paint5_linear_2870_715)" fill-opacity="0.8"/>
</g>
</g>
<path d="M209.187 282.881H322.062C335.68 282.881 346.73 293.82 346.73 307.221C346.73 320.624 335.723 331.562 322.062 331.562H315.296C298.925 331.562 285.565 344.22 285.565 359.167C285.565 374.101 298.18 386.031 313.79 386.772L313.826 386.773H332.233C345.852 386.773 356.902 397.712 356.902 411.114C356.902 424.517 345.895 435.454 332.233 435.454H324.705C308.334 435.454 294.976 448.112 294.976 463.059C294.976 477.993 307.59 489.923 323.2 490.664L323.236 490.666H410.516C424.136 490.666 435.185 501.562 435.185 515.005C435.185 528.408 424.177 539.345 410.516 539.345H408.813C392.442 539.345 379.083 552.004 379.083 566.952C379.083 581.885 391.698 593.815 407.309 594.555L407.344 594.557H448.156C461.776 594.557 472.825 605.453 472.825 618.897C472.825 632.3 461.817 643.238 448.156 643.238H325.108C311.489 643.238 300.439 632.341 300.439 618.897C300.44 605.494 311.447 594.557 325.108 594.557H325.682L325.718 594.555C341.361 593.815 353.942 582.25 353.942 566.952C353.942 551.638 340.57 539.345 324.213 539.345H209.187C195.567 539.345 184.518 528.449 184.518 515.005C184.518 501.602 195.525 490.666 209.187 490.666H213.165L213.2 490.664C228.844 489.924 241.426 478.358 241.426 463.059C241.426 447.745 228.053 435.454 211.695 435.454H180.643C167.024 435.454 155.974 424.515 155.974 411.114C155.974 397.711 166.981 386.773 180.643 386.773H225.936L225.971 386.772C241.614 386.032 254.196 374.466 254.196 359.167C254.196 343.853 240.823 331.562 224.466 331.562H209.187C195.568 331.562 184.518 320.622 184.518 307.221C184.518 293.818 195.525 282.881 209.187 282.881Z" stroke="url(#paint6_linear_2870_715)" stroke-opacity="0.4" stroke-width="3"/>
<path d="M376.688 178.812H499.734C513.354 178.812 524.403 189.708 524.403 203.152C524.403 216.555 513.396 227.493 499.734 227.493H499.161L499.126 227.495C483.482 228.235 470.9 239.8 470.9 255.098C470.9 270.412 484.273 282.704 500.631 282.704H615.657C629.277 282.704 640.326 293.601 640.326 307.044C640.326 320.447 629.318 331.384 615.657 331.384H611.679L611.643 331.386C595.999 332.126 583.418 343.692 583.418 358.99C583.418 374.304 596.79 386.596 613.147 386.596H644.201C657.819 386.596 668.87 397.535 668.87 410.936C668.87 424.339 657.862 435.276 644.201 435.276H598.908L598.872 435.278C583.228 436.018 570.647 447.584 570.647 462.882C570.648 478.196 584.02 490.488 600.377 490.488H615.657C629.275 490.488 640.326 501.426 640.326 514.828C640.326 528.231 629.319 539.168 615.657 539.168H502.737C489.119 539.168 478.068 528.229 478.068 514.828C478.069 501.425 489.076 490.488 502.737 490.488H509.503C525.874 490.488 539.233 477.83 539.233 462.882C539.233 447.949 526.618 436.018 511.008 435.278L510.973 435.276H492.565C478.947 435.276 467.896 424.337 467.896 410.936C467.896 397.533 478.904 386.596 492.565 386.596H500.093C516.464 386.596 529.823 373.937 529.823 358.99C529.823 344.056 517.208 332.127 501.598 331.386L501.562 331.384H414.282C400.663 331.384 389.614 320.488 389.614 307.044C389.614 293.642 400.621 282.704 414.282 282.704H415.985C432.356 282.704 445.716 270.046 445.716 255.098C445.716 240.165 433.101 228.235 417.49 227.495L417.455 227.493H376.688C363.068 227.493 352.019 216.596 352.019 203.152C352.019 189.749 363.026 178.812 376.688 178.812Z" stroke="url(#paint7_linear_2870_715)" stroke-opacity="0.4" stroke-width="3"/>
<g filter="url(#filter4_d_2870_715)">
<path d="M524.743 125.074C532.884 119.294 541.426 114.002 550.538 109.872C555.609 107.602 560.92 105.643 566.361 104.443C583.396 100.529 598.582 105.23 607.079 121.357C632.938 172.896 589.757 289.053 567.509 340.342C519.663 450.744 434.607 589.51 341.727 666.585C319.236 684.858 270.085 719.508 245.102 690.463C239.737 683.993 236.872 675.822 235.265 667.668L235.495 667.618C236.019 669.765 236.562 671.91 237.279 674.001L237.533 674.788C237.618 675.05 237.721 675.307 237.812 675.565L238.384 677.118C239.985 681.171 242.084 685.14 244.813 688.555C257.964 704.913 278.857 700.838 295.744 693.124C311.731 685.751 326.077 675.208 339.563 663.959C359.828 646.898 378.185 627.701 395.553 607.716C441.686 554.122 480.901 494.786 515.371 433.125C541.106 386.788 564.069 338.815 582.416 289.068C597.359 248.251 627.688 154.47 601.413 117.086C593.105 105.694 579.94 103.25 566.68 105.963C561.85 106.897 557.09 108.462 552.517 110.279C551.088 110.852 549.36 111.61 547.957 112.232C539.92 115.889 532.265 120.388 524.879 125.271L524.747 125.078L524.743 125.074Z" fill="#E7F9FF"/>
</g>
<g filter="url(#filter5_d_2870_715)">
<path d="M702.577 360.663C711.653 364.823 720.507 369.574 728.64 375.4C733.141 378.657 737.493 382.277 741.253 386.389C753.16 399.185 756.682 414.687 746.964 430.109C715.259 478.273 593.074 498.955 537.532 505.333C417.999 519.098 255.296 514.821 142.106 472.921C115.036 462.581 60.4525 437.339 73.1151 401.181C76.0356 393.299 81.6794 386.733 87.9378 381.264L88.0959 381.439C86.4985 382.966 84.9128 384.509 83.4602 386.174L82.9061 386.788C82.7214 386.993 82.5501 387.211 82.372 387.419L81.3138 388.69C78.6034 392.103 76.2161 395.906 74.6227 399.977C67.0318 419.545 81.0077 435.601 96.1321 446.369C110.511 456.528 126.814 463.679 143.299 469.734C168.206 478.754 194.01 485.053 220.001 490.102C289.482 503.258 360.476 507.551 431.111 506.572C484.107 505.69 537.135 501.591 589.39 492.606C632.211 485.138 728.592 464.514 747.829 423.067C753.541 410.176 749.075 397.553 740.096 387.426C736.873 383.71 733.137 380.37 729.276 377.318C728.066 376.367 726.546 375.25 725.306 374.346C718.12 369.214 710.396 364.834 702.474 360.879L702.576 360.668L702.577 360.663Z" fill="#E7F9FF"/>
</g>
<defs>
<filter id="filter0_f_2870_715" x="0" y="0.90625" width="823" height="823" filterUnits="userSpaceOnUse" color-interpolation-filters="sRGB">
<feFlood flood-opacity="0" result="BackgroundImageFix"/>
<feBlend mode="normal" in="SourceGraphic" in2="BackgroundImageFix" result="shape"/>
<feGaussianBlur stdDeviation="60" result="effect1_foregroundBlur_2870_715"/>
</filter>
<filter id="filter1_d_2870_715" x="134.474" y="157.312" width="555.896" height="527.955" filterUnits="userSpaceOnUse" color-interpolation-filters="sRGB">
<feFlood flood-opacity="0" result="BackgroundImageFix"/>
<feColorMatrix in="SourceAlpha" type="matrix" values="0 0 0 0 0 0 0 0 0 0 0 0 0 0 0 0 0 0 127 0" result="hardAlpha"/>
<feOffset/>
<feGaussianBlur stdDeviation="10"/>
<feComposite in2="hardAlpha" operator="out"/>
<feColorMatrix type="matrix" values="0 0 0 0 0 0 0 0 0 0.116667 0 0 0 0 1 0 0 0 0.8 0"/>
<feBlend mode="screen" in2="BackgroundImageFix" result="effect1_dropShadow_2870_715"/>
<feBlend mode="normal" in="SourceGraphic" in2="effect1_dropShadow_2870_715" result="shape"/>
</filter>
<filter id="filter2_i_2870_715" x="154.474" y="281.381" width="319.852" height="366.356" filterUnits="userSpaceOnUse" color-interpolation-filters="sRGB">
<feFlood flood-opacity="0" result="BackgroundImageFix"/>
<feBlend mode="normal" in="SourceGraphic" in2="BackgroundImageFix" result="shape"/>
<feColorMatrix in="SourceAlpha" type="matrix" values="0 0 0 0 0 0 0 0 0 0 0 0 0 0 0 0 0 0 127 0" result="hardAlpha"/>
<feOffset dy="3"/>
<feGaussianBlur stdDeviation="2"/>
<feComposite in2="hardAlpha" operator="arithmetic" k2="-1" k3="1"/>
<feColorMatrix type="matrix" values="0 0 0 0 1 0 0 0 0 1 0 0 0 0 1 0 0 0 0.25 0"/>
<feBlend mode="normal" in2="shape" result="effect1_innerShadow_2870_715"/>
</filter>
<filter id="filter3_i_2870_715" x="350.519" y="177.312" width="319.852" height="366.356" filterUnits="userSpaceOnUse" color-interpolation-filters="sRGB">
<feFlood flood-opacity="0" result="BackgroundImageFix"/>
<feBlend mode="normal" in="SourceGraphic" in2="BackgroundImageFix" result="shape"/>
<feColorMatrix in="SourceAlpha" type="matrix" values="0 0 0 0 0 0 0 0 0 0 0 0 0 0 0 0 0 0 127 0" result="hardAlpha"/>
<feOffset dy="3"/>
<feGaussianBlur stdDeviation="2"/>
<feComposite in2="hardAlpha" operator="arithmetic" k2="-1" k3="1"/>
<feColorMatrix type="matrix" values="0 0 0 0 1 0 0 0 0 1 0 0 0 0 1 0 0 0 0.25 0"/>
<feBlend mode="normal" in2="shape" result="effect1_innerShadow_2870_715"/>
</filter>
<filter id="filter4_d_2870_715" x="225.265" y="93.1406" width="399.814" height="618.499" filterUnits="userSpaceOnUse" color-interpolation-filters="sRGB">
<feFlood flood-opacity="0" result="BackgroundImageFix"/>
<feColorMatrix in="SourceAlpha" type="matrix" values="0 0 0 0 0 0 0 0 0 0 0 0 0 0 0 0 0 0 127 0" result="hardAlpha"/>
<feOffset/>
<feGaussianBlur stdDeviation="5"/>
<feComposite in2="hardAlpha" operator="out"/>
<feColorMatrix type="matrix" values="0 0 0 0 0.177415 0 0 0 0 0.791751 0 0 0 0 1 0 0 0 1 0"/>
<feBlend mode="normal" in2="BackgroundImageFix" result="effect1_dropShadow_2870_715"/>
<feBlend mode="normal" in="SourceGraphic" in2="effect1_dropShadow_2870_715" result="shape"/>
</filter>
<filter id="filter5_d_2870_715" x="61.2383" y="350.663" width="701.344" height="171.702" filterUnits="userSpaceOnUse" color-interpolation-filters="sRGB">
<feFlood flood-opacity="0" result="BackgroundImageFix"/>
<feColorMatrix in="SourceAlpha" type="matrix" values="0 0 0 0 0 0 0 0 0 0 0 0 0 0 0 0 0 0 127 0" result="hardAlpha"/>
<feOffset/>
<feGaussianBlur stdDeviation="5"/>
<feComposite in2="hardAlpha" operator="out"/>
<feColorMatrix type="matrix" values="0 0 0 0 0.177415 0 0 0 0 0.791751 0 0 0 0 1 0 0 0 1 0"/>
<feBlend mode="normal" in2="BackgroundImageFix" result="effect1_dropShadow_2870_715"/>
<feBlend mode="normal" in="SourceGraphic" in2="effect1_dropShadow_2870_715" result="shape"/>
</filter>
<linearGradient id="paint0_linear_2870_715" x1="583" y1="479.165" x2="-4.58507e-06" y2="103.835" gradientUnits="userSpaceOnUse">
<stop offset="0.0480769" stop-color="#2E3ECE"/>
<stop offset="0.929364" stop-color="#46C3F9"/>
</linearGradient>
<linearGradient id="paint1_linear_2870_715" x1="474.325" y1="463.06" x2="154.474" y2="463.06" gradientUnits="userSpaceOnUse">
<stop stop-color="#16BBEF"/>
<stop offset="0.498137" stop-color="#3D71EE"/>
<stop offset="1" stop-color="#6657EA"/>
</linearGradient>
<linearGradient id="paint2_linear_2870_715" x1="562.647" y1="569.693" x2="563.519" y2="665.259" gradientUnits="userSpaceOnUse">
<stop stop-color="#FFE7B3"/>
<stop offset="1" stop-color="#AF8E45"/>
</linearGradient>
<linearGradient id="paint3_linear_2870_715" x1="280.567" y1="198.463" x2="281.039" y2="250.14" gradientUnits="userSpaceOnUse">
<stop stop-color="#FFE7B3"/>
<stop offset="1" stop-color="#AF8E45"/>
</linearGradient>
<linearGradient id="paint4_linear_2870_715" x1="411.46" y1="378.812" x2="412.057" y2="444.292" gradientUnits="userSpaceOnUse">
<stop stop-color="#FFE7B3"/>
<stop offset="1" stop-color="#AF8E45"/>
</linearGradient>
<linearGradient id="paint5_linear_2870_715" x1="670.37" y1="358.99" x2="350.519" y2="358.99" gradientUnits="userSpaceOnUse">
<stop stop-color="#16BBEF"/>
<stop offset="0.498137" stop-color="#3D71EE"/>
<stop offset="1" stop-color="#6657EA"/>
</linearGradient>
<linearGradient id="paint6_linear_2870_715" x1="314.399" y1="281.381" x2="314.399" y2="644.738" gradientUnits="userSpaceOnUse">
<stop stop-color="#E4CD9A"/>
<stop offset="1" stop-color="white" stop-opacity="0"/>
</linearGradient>
<linearGradient id="paint7_linear_2870_715" x1="510.444" y1="177.312" x2="510.444" y2="540.668" gradientUnits="userSpaceOnUse">
<stop stop-color="#E4CD9A"/>
<stop offset="1" stop-color="white" stop-opacity="0"/>
</linearGradient>
</defs>
</svg>
