<svg width="37" height="34" viewBox="0 0 37 34" fill="none" xmlns="http://www.w3.org/2000/svg">
<path d="M20.7188 28.9681H17.8421C16.7894 28.9187 15.9516 28.1264 15.9516 27.1491C15.9516 26.1717 16.84 25.33 17.9432 25.33H18.0634C19.0844 25.33 19.9095 24.5223 19.9095 23.5295C19.9095 22.5337 19.0813 21.729 18.0634 21.729H11.9084C10.8557 21.6797 10.018 20.8874 10.018 19.91C10.018 18.9327 10.9063 18.091 12.0096 18.091H12.5407C13.5617 18.091 14.3868 17.2833 14.3868 16.2905C14.3868 15.2978 13.5586 14.49 12.5407 14.49H11.2445C10.1919 14.4407 9.35413 13.6483 9.35413 12.671C9.35413 11.6937 10.2424 10.852 11.3457 10.852H11.8231C12.8441 10.852 13.6692 10.0442 13.6692 9.05148C13.6692 8.05874 12.841 7.25098 11.8231 7.25098H3.85988C2.8388 7.25098 2.01371 8.05874 2.01371 9.05148C2.01371 10.0442 2.84196 10.852 3.85988 10.852H4.93787C6.04114 10.852 6.92945 11.669 6.92945 12.671C6.92945 13.673 6.09488 14.4407 5.03902 14.49H1.84617C0.825085 14.49 0 15.2978 0 16.2905C0 17.2833 0.828246 18.091 1.84617 18.091H4.03691C5.14018 18.091 6.02849 18.908 6.02849 19.91C6.02849 20.912 5.19393 21.6797 4.13807 21.729H3.85988C2.8388 21.729 2.01371 22.5368 2.01371 23.5295C2.01371 24.5254 2.84196 25.33 3.85988 25.33H11.9748C13.0781 25.33 13.9664 26.1471 13.9664 27.1491C13.9664 28.151 13.1318 28.9187 12.076 28.9681H12.038C11.0169 28.9681 10.1919 29.7758 10.1919 30.7686C10.1919 31.7644 11.0201 32.5691 12.038 32.5691H20.7188C21.7399 32.5691 22.565 31.7613 22.565 30.7686C22.565 29.7727 21.7367 28.9681 20.7188 28.9681Z" fill="url(#paint0_linear_2881_1126)"/>
<path d="M28.796 34.0002C30.6816 34.0002 32.2101 32.5095 32.2101 30.6705C32.2101 28.8316 30.6816 27.3408 28.796 27.3408C26.9104 27.3408 25.3818 28.8316 25.3818 30.6705C25.3818 32.5095 26.9104 34.0002 28.796 34.0002Z" fill="url(#paint1_linear_2881_1126)"/>
<path d="M8.89597 5.07465C9.91558 5.07465 10.7421 4.26853 10.7421 3.27414C10.7421 2.27975 9.91558 1.47363 8.89597 1.47363C7.87636 1.47363 7.0498 2.27975 7.0498 3.27414C7.0498 4.26853 7.87636 5.07465 8.89597 5.07465Z" fill="url(#paint2_linear_2881_1126)"/>
<path d="M18.1294 18.603C19.4213 18.603 20.4687 17.5815 20.4687 16.3215C20.4687 15.0615 19.4213 14.04 18.1294 14.04C16.8374 14.04 15.79 15.0615 15.79 16.3215C15.79 17.5815 16.8374 18.603 18.1294 18.603Z" fill="url(#paint3_linear_2881_1126)"/>
<path d="M15.6731 3.60102H18.5498C19.6025 3.65034 20.4402 4.44269 20.4402 5.42002C20.4402 6.39735 19.5519 7.23903 18.4487 7.23903H18.3285C17.3074 7.23903 16.4824 8.04679 16.4824 9.03953C16.4824 10.0354 17.3106 10.84 18.3285 10.84H24.4835C25.5362 10.8894 26.3739 11.6817 26.3739 12.659C26.3739 13.6364 25.4856 14.4781 24.3823 14.4781H23.8512C22.8301 14.4781 22.0051 15.2858 22.0051 16.2786C22.0051 17.2713 22.8333 18.0791 23.8512 18.0791H25.1473C26.2 18.1284 27.0378 18.9207 27.0378 19.8981C27.0378 20.8754 26.1495 21.7171 25.0462 21.7171H24.5688C23.5477 21.7171 22.7227 22.5248 22.7227 23.5176C22.7227 24.5103 23.5509 25.3181 24.5688 25.3181H32.5352C33.5562 25.3181 34.3813 24.5103 34.3813 23.5176C34.3813 22.5248 33.5531 21.7171 32.5352 21.7171H31.4572C30.3539 21.7171 29.4656 20.9001 29.4656 19.8981C29.4656 18.8961 30.3002 18.1284 31.356 18.0791H34.5489C35.57 18.0791 36.395 17.2713 36.395 16.2786C36.395 15.2858 35.5668 14.4781 34.5489 14.4781H32.3581C31.2549 14.4781 30.3666 13.661 30.3666 12.659C30.3666 11.6571 31.2011 10.8894 32.257 10.84H32.5352C33.5562 10.84 34.3813 10.0323 34.3813 9.03953C34.3813 8.04371 33.5531 7.23903 32.5352 7.23903H24.4202C23.317 7.23903 22.4287 6.42202 22.4287 5.42002C22.4287 4.41803 23.2632 3.65034 24.3191 3.60102H24.357C25.3781 3.60102 26.2032 2.79325 26.2032 1.80051C26.2032 0.804679 25.3749 0 24.357 0H15.6762C14.6552 0 13.8301 0.807762 13.8301 1.80051C13.8301 2.79634 14.6583 3.60102 15.6762 3.60102H15.6731Z" fill="url(#paint4_linear_2881_1126)"/>
<defs>
<linearGradient id="paint0_linear_2881_1126" x1="30.5724" y1="33.5217" x2="8.56663" y2="1.30069" gradientUnits="userSpaceOnUse">
<stop stop-color="#6A54EA"/>
<stop offset="0.49" stop-color="#3A72EF"/>
<stop offset="1" stop-color="#11C5EF"/>
</linearGradient>
<linearGradient id="paint1_linear_2881_1126" x1="30.5726" y1="33.5224" x2="8.56683" y2="1.30131" gradientUnits="userSpaceOnUse">
<stop stop-color="#6A54EA"/>
<stop offset="0.49" stop-color="#3A72EF"/>
<stop offset="1" stop-color="#11C5EF"/>
</linearGradient>
<linearGradient id="paint2_linear_2881_1126" x1="30.5726" y1="33.522" x2="8.56686" y2="1.301" gradientUnits="userSpaceOnUse">
<stop stop-color="#6A54EA"/>
<stop offset="0.49" stop-color="#3A72EF"/>
<stop offset="1" stop-color="#11C5EF"/>
</linearGradient>
<linearGradient id="paint3_linear_2881_1126" x1="30.572" y1="33.5219" x2="8.56625" y2="1.30086" gradientUnits="userSpaceOnUse">
<stop stop-color="#6A54EA"/>
<stop offset="0.49" stop-color="#3A72EF"/>
<stop offset="1" stop-color="#11C5EF"/>
</linearGradient>
<linearGradient id="paint4_linear_2881_1126" x1="30.572" y1="33.5221" x2="8.56626" y2="1.30108" gradientUnits="userSpaceOnUse">
<stop stop-color="#6A54EA"/>
<stop offset="0.49" stop-color="#3A72EF"/>
<stop offset="1" stop-color="#11C5EF"/>
</linearGradient>
</defs>
</svg>
