<svg width="278" height="66" viewBox="0 0 278 66" fill="none" xmlns="http://www.w3.org/2000/svg">
<g clip-path="url(#clip0_2244_473)">
<path d="M39.7229 56.2329H34.2076C32.1893 56.1371 30.5832 54.599 30.5832 52.7018C30.5832 50.8047 32.2863 49.1708 34.4015 49.1708H34.6318C36.5895 49.1708 38.1714 47.6028 38.1714 45.6757C38.1714 43.7427 36.5834 42.1806 34.6318 42.1806H22.8313C20.813 42.0849 19.2069 40.5468 19.2069 38.6496C19.2069 36.7525 20.91 35.1186 23.0252 35.1186H24.0435C26.0011 35.1186 27.583 33.5506 27.583 31.6235C27.583 29.6964 25.9951 28.1284 24.0435 28.1284H21.5585C19.5402 28.0326 17.9341 26.4946 17.9341 24.5974C17.9341 22.7002 19.6372 21.0664 21.7525 21.0664H22.6677C24.6253 21.0664 26.2072 19.4984 26.2072 17.5713C26.2072 15.6442 24.6193 14.0762 22.6677 14.0762H7.40032C5.44266 14.0762 3.86077 15.6442 3.86077 17.5713C3.86077 19.4984 5.44872 21.0664 7.40032 21.0664H9.46708C11.5823 21.0664 13.2854 22.6523 13.2854 24.5974C13.2854 26.5424 11.6854 28.0326 9.66103 28.1284H3.53955C1.58189 28.1284 0 29.6964 0 31.6235C0 33.5506 1.58795 35.1186 3.53955 35.1186H7.73973C9.85498 35.1186 11.5581 36.7046 11.5581 38.6496C11.5581 40.5947 9.95801 42.0849 7.93368 42.1806H7.40032C5.44266 42.1806 3.86077 43.7486 3.86077 45.6757C3.86077 47.6088 5.44872 49.1708 7.40032 49.1708H22.9586C25.0738 49.1708 26.7769 50.7568 26.7769 52.7018C26.7769 54.6469 25.1769 56.1371 23.1525 56.2329H23.0798C21.1221 56.2329 19.5402 57.8009 19.5402 59.728C19.5402 61.661 21.1282 63.2231 23.0798 63.2231H39.7229C41.6806 63.2231 43.2625 61.6551 43.2625 59.728C43.2625 57.7949 41.6745 56.2329 39.7229 56.2329Z" fill="url(#paint0_linear_2244_473)"/>
<path d="M55.2083 66.0003C58.8234 66.0003 61.7541 63.1065 61.7541 59.5368C61.7541 55.9671 58.8234 53.0732 55.2083 53.0732C51.5932 53.0732 48.6626 55.9671 48.6626 59.5368C48.6626 63.1065 51.5932 66.0003 55.2083 66.0003Z" fill="url(#paint1_linear_2244_473)"/>
<path d="M17.0552 9.85056C19.01 9.85056 20.5947 8.28575 20.5947 6.35545C20.5947 4.42516 19.01 2.86035 17.0552 2.86035C15.1003 2.86035 13.5156 4.42516 13.5156 6.35545C13.5156 8.28575 15.1003 9.85056 17.0552 9.85056Z" fill="url(#paint2_linear_2244_473)"/>
<path d="M34.759 36.1123C37.236 36.1123 39.244 34.1295 39.244 31.6836C39.244 29.2377 37.236 27.2549 34.759 27.2549C32.2819 27.2549 30.2739 29.2377 30.2739 31.6836C30.2739 34.1295 32.2819 36.1123 34.759 36.1123Z" fill="url(#paint3_linear_2244_473)"/>
<path d="M30.0496 6.99021H35.565C37.5833 7.08596 39.1894 8.62405 39.1894 10.5212C39.1894 12.4184 37.4863 14.0522 35.371 14.0522H35.1407C33.1831 14.0522 31.6012 15.6202 31.6012 17.5473C31.6012 19.4804 33.1891 21.0424 35.1407 21.0424H46.9412C48.9595 21.1382 50.5656 22.6763 50.5656 24.5734C50.5656 26.4706 48.8625 28.1045 46.7473 28.1045H45.7291C43.7714 28.1045 42.1895 29.6725 42.1895 31.5996C42.1895 33.5267 43.7775 35.0947 45.7291 35.0947H48.214C50.2323 35.1904 51.8384 36.7285 51.8384 38.6257C51.8384 40.5228 50.1353 42.1567 48.0201 42.1567H47.1049C45.1472 42.1567 43.5653 43.7247 43.5653 45.6518C43.5653 47.5789 45.1533 49.1469 47.1049 49.1469H62.3783C64.3359 49.1469 65.9178 47.5789 65.9178 45.6518C65.9178 43.7247 64.3299 42.1567 62.3783 42.1567H60.3115C58.1963 42.1567 56.4932 40.5707 56.4932 38.6257C56.4932 36.6806 58.0932 35.1904 60.1176 35.0947H66.2391C68.1967 35.0947 69.7786 33.5267 69.7786 31.5996C69.7786 29.6725 68.1907 28.1045 66.2391 28.1045H62.0389C59.9236 28.1045 58.2205 26.5185 58.2205 24.5734C58.2205 22.6284 59.8206 21.1382 61.8449 21.0424H62.3783C64.3359 21.0424 65.9178 19.4744 65.9178 17.5473C65.9178 15.6143 64.3299 14.0522 62.3783 14.0522H46.82C44.7048 14.0522 43.0017 12.4663 43.0017 10.5212C43.0017 8.57617 44.6018 7.08596 46.6261 6.99021H46.6988C48.6565 6.99021 50.2384 5.4222 50.2384 3.4951C50.2384 1.56202 48.6504 0 46.6988 0H30.0557C28.098 0 26.5161 1.56801 26.5161 3.4951C26.5161 5.42818 28.1041 6.99021 30.0557 6.99021H30.0496Z" fill="url(#paint4_linear_2244_473)"/>
<g clip-path="url(#clip1_2244_473)">
<path d="M114.904 33.545C114.729 26.3685 120.596 20.3672 127.762 20.3672C135.228 20.3672 140.43 25.4349 140.43 33.1032V44.439C140.43 44.9974 139.98 45.4475 139.423 45.4475H136.193C135.636 45.4475 135.186 44.9974 135.186 44.439V40.1464C133.738 43.6638 130.517 45.4559 126.755 45.4559C121.071 45.4559 115.103 41.4384 114.912 33.5533L114.904 33.545ZM134.695 32.9115C134.695 28.719 131.899 25.7267 127.712 25.7267C123.526 25.7267 120.68 28.719 120.68 32.9115C120.68 37.1041 123.518 40.0964 127.712 40.0964C131.907 40.0964 134.695 37.1041 134.695 32.9115Z" fill="#EDF1FF"/>
<path d="M203.208 31.2195C203.208 23.7429 207.545 20.3672 213.179 20.3672C216.741 20.3672 219.679 21.8592 221.419 24.6598C223.108 21.8592 226.046 20.3672 229.65 20.3672C235.284 20.3672 239.621 23.7429 239.621 31.2195V43.8139C239.621 44.3723 239.171 44.8224 238.614 44.8224H234.902C234.344 44.8224 233.895 44.3723 233.895 43.8139V31.2195C233.895 27.3103 231.872 25.7183 229.076 25.7183C226.279 25.7183 224.307 27.3603 224.307 31.2195V43.8139C224.307 44.3723 223.857 44.8224 223.3 44.8224H219.588C219.03 44.8224 218.581 44.3723 218.581 43.8139V31.2195C218.581 27.3603 216.508 25.7183 213.762 25.7183C211.015 25.7183 208.943 27.3103 208.943 31.2195V43.8139C208.943 44.3723 208.493 44.8224 207.936 44.8224H204.224C203.666 44.8224 203.217 44.3723 203.217 43.8139V31.2195H203.208Z" fill="#EDF1FF"/>
<path d="M243.374 32.9115C243.374 25.6767 248.676 20.3672 256.183 20.3672C263.69 20.3672 268.992 25.6683 268.992 32.9115C268.992 40.1547 263.698 45.4559 256.183 45.4559C248.667 45.4559 243.374 40.1464 243.374 32.9115ZM263.166 32.9115C263.166 28.719 260.369 25.7267 256.183 25.7267C251.996 25.7267 249.15 28.719 249.15 32.9115C249.15 37.1041 251.988 40.0964 256.183 40.0964C260.377 40.0964 263.166 37.1041 263.166 32.9115Z" fill="#EDF1FF"/>
<path d="M164.532 53.9915V41.3555C162.843 44.006 160.005 45.4563 156.584 45.4563C150.891 45.4563 144.916 41.4305 144.741 33.5205C144.583 26.3523 150.442 20.376 157.6 20.376C165.065 20.376 170.267 25.3937 170.267 33.112V53.9998C170.267 54.5583 169.817 55.0084 169.26 55.0084H165.548C164.99 55.0084 164.541 54.5583 164.541 53.9998L164.532 53.9915ZM164.532 32.912C164.532 28.7194 161.736 25.7271 157.55 25.7271C153.363 25.7271 150.517 28.7194 150.517 32.912C150.517 37.1046 153.355 40.0969 157.55 40.0969C161.744 40.0969 164.532 37.1046 164.532 32.912Z" fill="url(#paint5_linear_2244_473)"/>
<path d="M174.986 33.3953V28.8443C174.986 28.2859 175.435 27.8358 175.993 27.8358H179.705C180.263 27.8358 180.712 28.2859 180.712 28.8443V33.3953C180.712 37.9296 183.117 40.0967 186.729 40.0967C190.341 40.0967 192.747 37.9296 192.747 33.3953V22.0095C192.747 21.4511 193.196 21.001 193.754 21.001H197.466C198.023 21.001 198.473 21.4511 198.473 22.0095V33.3953C198.473 41.3553 193.754 45.4562 186.721 45.4562C179.688 45.4562 174.969 41.4053 174.969 33.3953H174.986Z" fill="url(#paint6_linear_2244_473)"/>
<path d="M177.94 24.5182C179.876 24.5182 181.444 22.9471 181.444 21.0091C181.444 19.0711 179.876 17.5 177.94 17.5C176.005 17.5 174.437 19.0711 174.437 21.0091C174.437 22.9471 176.005 24.5182 177.94 24.5182Z" fill="url(#paint7_linear_2244_473)"/>
<path d="M97.759 43.8059V36.8628L85.1999 17.2253C84.7505 16.5334 85.0834 16 85.899 16H90.102C90.6347 16 91.0425 16.2417 91.3255 16.6918L100.622 31.5533L109.827 16.6918C110.11 16.2417 110.518 16 111.05 16H115.212C116.028 16 116.352 16.5334 115.903 17.2253L103.427 36.8628V43.8059C103.427 44.3727 102.969 44.8228 102.411 44.8228H98.7827C98.2168 44.8228 97.7673 44.3644 97.7673 43.8059H97.759Z" fill="#EDF1FF"/>
</g>
</g>
<defs>
<linearGradient id="paint0_linear_2244_473" x1="58.6147" y1="65.0724" x2="15.7072" y2="3.02149" gradientUnits="userSpaceOnUse">
<stop stop-color="#6A54EA"/>
<stop offset="0.49" stop-color="#3A72EF"/>
<stop offset="1" stop-color="#11C5EF"/>
</linearGradient>
<linearGradient id="paint1_linear_2244_473" x1="58.6145" y1="65.0727" x2="15.7071" y2="3.02183" gradientUnits="userSpaceOnUse">
<stop stop-color="#6A54EA"/>
<stop offset="0.49" stop-color="#3A72EF"/>
<stop offset="1" stop-color="#11C5EF"/>
</linearGradient>
<linearGradient id="paint2_linear_2244_473" x1="58.6146" y1="65.072" x2="15.7071" y2="3.02112" gradientUnits="userSpaceOnUse">
<stop stop-color="#6A54EA"/>
<stop offset="0.49" stop-color="#3A72EF"/>
<stop offset="1" stop-color="#11C5EF"/>
</linearGradient>
<linearGradient id="paint3_linear_2244_473" x1="58.6146" y1="65.0726" x2="15.7071" y2="3.02175" gradientUnits="userSpaceOnUse">
<stop stop-color="#6A54EA"/>
<stop offset="0.49" stop-color="#3A72EF"/>
<stop offset="1" stop-color="#11C5EF"/>
</linearGradient>
<linearGradient id="paint4_linear_2244_473" x1="58.6145" y1="65.0724" x2="15.707" y2="3.02149" gradientUnits="userSpaceOnUse">
<stop stop-color="#6A54EA"/>
<stop offset="0.49" stop-color="#3A72EF"/>
<stop offset="1" stop-color="#11C5EF"/>
</linearGradient>
<linearGradient id="paint5_linear_2244_473" x1="171.615" y1="55" x2="171.615" y2="17.5087" gradientUnits="userSpaceOnUse">
<stop stop-color="#7058D3"/>
<stop offset="0.49" stop-color="#3967E8"/>
<stop offset="1" stop-color="#00ABD9"/>
</linearGradient>
<linearGradient id="paint6_linear_2244_473" x1="171.615" y1="54.9999" x2="171.615" y2="17.5086" gradientUnits="userSpaceOnUse">
<stop stop-color="#7058D3"/>
<stop offset="0.49" stop-color="#3967E8"/>
<stop offset="1" stop-color="#00ABD9"/>
</linearGradient>
<linearGradient id="paint7_linear_2244_473" x1="171.615" y1="54.9997" x2="171.615" y2="17.5083" gradientUnits="userSpaceOnUse">
<stop stop-color="#7058D3"/>
<stop offset="0.49" stop-color="#3967E8"/>
<stop offset="1" stop-color="#00ABD9"/>
</linearGradient>
<clipPath id="clip0_2244_473">
<rect width="278" height="66" fill="white"/>
</clipPath>
<clipPath id="clip1_2244_473">
<rect width="184" height="39" fill="white" transform="translate(85 16)"/>
</clipPath>
</defs>
</svg>
