<svg width="339" height="71" viewBox="0 0 339 71" fill="none" xmlns="http://www.w3.org/2000/svg">
<g opacity="0.5" clip-path="url(#clip0_2858_106)">
<path d="M25.5233 30.6889C26.7772 27.8869 27.86 24.9329 28.278 21.8554C28.5439 19.8608 28.7529 16.0329 27.4896 14.3802C25.8368 12.2241 23.5666 15.6625 22.9397 17.0873C20.641 22.3018 21.4294 28.5612 24.3835 33.3294C26.1028 31.9236 27.784 30.4799 29.7218 29.3876C34.3382 26.7945 40.2938 25.7592 44.8342 29.0836C49.3746 32.4081 48.7667 38.0501 44.0648 40.7286C39.363 43.4071 31.2131 42.8277 27.6036 38.4585C27.3091 38.0976 26.6917 37.2617 26.5587 36.8438C26.5302 36.7678 26.5397 36.6443 26.6157 36.6728C29.2088 38.2875 34.1292 40.2157 36.4089 37.2427C37.6912 35.5615 37.5012 33.8708 36.2284 32.2561C33.6542 28.9887 28.4679 30.9073 26.1502 33.5574C25.9318 33.8138 25.1529 34.8016 25.2194 35.0581C28.9714 42.7612 32.9703 51.8036 32.4479 60.5896C32.0965 66.3931 27.9075 73.7258 21.2204 69.9549C16.3476 67.2099 14.9418 60.8081 15.3692 55.6315C15.9106 49.1441 19.1117 42.5903 22.4647 37.1287C22.6072 37.2047 22.4742 37.4517 22.4362 37.5656C21.5149 40.7761 20.2325 43.6541 19.5676 47.0355C19.0737 49.5525 18.0193 56.2109 21.7713 56.7143C24.526 57.0847 25.5423 54.8621 26.0268 52.573C27.0241 47.8428 25.7038 37.2807 21.8188 33.9563C18.8742 31.4392 10.2684 27.9248 10.3919 34.6497C10.5058 40.6906 18.4943 37.1667 21.6194 36.2929C21.7808 36.2454 21.8378 36.0839 21.8188 36.3784C17.7819 41.8114 10.3159 44.7559 4.06571 41.099C-2.91585 37.0147 -0.256205 28.4852 7.02932 27.1365C11.7027 26.2721 16.5185 28.1623 20.4415 30.5654C18.3708 25.5693 16.2146 20.4592 15.5022 15.0451C14.8658 10.201 15.2932 4.18852 19.8336 1.31053C25.8083 -2.4793 30.8996 2.53582 32.1534 8.3203C33.8347 16.0804 29.8643 24.4769 25.5233 30.6794V30.6889Z" fill="white"/>
<path d="M114.128 46.2473H131.662V48.9544L114.128 49.1823V63.1259C114.128 63.2209 113.9 63.9617 113.843 64.1042C113.491 64.9401 112.665 65.32 111.829 65.548C110.841 65.8139 109.464 65.9089 108.428 65.9564C106.899 66.0229 105.351 65.8899 103.821 65.9564C103.603 64.9401 103.071 64.0377 102.72 63.0689C105.028 63.0404 107.507 63.3728 109.815 63.1924C110.072 63.1734 111.249 62.9929 111.249 62.67V49.1823C111.249 49.1823 111.088 49.0114 111.079 49.0114H93.8858C93.8858 49.0114 93.8003 49.1538 93.7148 49.1253V46.2473H111.249V39.4465C112.598 39.893 113.453 39.2756 114.555 38.6582C117.243 37.1669 119.865 35.2103 122.211 33.2251H97.9798V30.4611H125.384C125.45 30.4611 125.697 30.2617 125.878 30.2522C126.068 30.2332 128.043 31.5154 128.271 31.7339C128.661 32.1233 127.882 32.1898 127.644 32.3703C126.694 33.0732 125.678 34.175 124.69 34.9538C122.6 36.6065 120.311 38.2023 118.051 39.6175C116.768 40.4154 115.391 41.1088 114.137 41.9351V46.2568L114.128 46.2473Z" fill="white"/>
<path d="M255.183 45.098C254.062 45.1265 252.305 45.2215 251.251 45.098C251.137 45.0885 250.852 45.0505 250.852 44.9176V32.2373C250.852 32.2373 251.013 32.0663 251.023 32.0663H254.946C254.946 32.0663 255.231 32.2658 255.231 32.0093V29.5303H234.922V32.0093C234.922 32.0093 235.093 32.1993 235.179 32.1613C236.157 32.1233 237.743 31.9049 238.665 32.0663C238.76 32.0853 238.95 32.1613 238.95 32.2373V44.9176C238.95 45.041 238.665 45.079 238.551 45.098C237.42 45.231 235.578 45.1265 234.39 45.098C234.229 45.098 233.649 44.8891 233.649 45.1455V47.7386H238.845C238.608 54.1214 236.404 60.4093 231.113 64.2752L233.269 65.9279C238.997 61.8151 241.419 54.5869 241.495 47.7386H248.182V65.7759C248.182 65.7759 248.334 65.9564 248.42 65.8994C249.123 65.6999 249.911 65.8994 250.605 65.8994C250.7 65.8994 250.842 65.8614 250.842 65.7759V47.7386H255.857C255.857 47.7386 256.028 47.5771 256.028 47.5676V45.1455C256.028 44.8511 255.354 45.0885 255.164 45.098H255.183ZM248.201 44.9176C248.201 44.9651 248.021 45.1075 247.926 45.0885H241.904C241.809 45.117 241.628 44.9651 241.628 44.9176V32.2373C241.647 32.1613 241.809 32.0473 241.904 32.0663H247.926C248.021 32.0378 248.201 32.1898 248.201 32.2373V44.9176Z" fill="white"/>
<path d="M323.65 44.5187C323.565 52.0603 321.874 60.1149 316.555 65.7189C315.947 65.0066 315.234 64.4366 314.541 63.8003C322.52 55.0713 320.668 42.733 320.877 31.8384C320.991 31.7244 322.586 32.2658 322.909 32.2943C323.897 32.3798 328.381 30.8791 329.587 30.4611C331.601 29.7773 333.567 28.9794 335.467 28.0391C335.676 28.0391 337.651 29.6728 337.936 29.9482C338.041 30.0432 338.212 30.1002 338.183 30.2807C336.873 30.5371 335.695 31.164 334.431 31.6104C330.907 32.8547 327.288 33.909 323.641 34.7164V41.7451H338.981V44.5092H334.137V65.7759C334.137 65.7759 333.975 65.9469 333.966 65.9469H331.373V44.5092H323.641L323.65 44.5187Z" fill="white"/>
<path d="M196.737 51.8896H213.93V54.3687L196.737 54.5966V63.3541C196.737 63.677 196.338 64.5319 196.11 64.7978C194.581 66.5455 189.366 65.6717 187.239 66.0516L185.899 63.2971C187.913 63.1926 189.965 63.5061 191.96 63.4206C192.311 63.4016 193.232 63.3256 193.527 63.2496C193.669 63.2116 193.859 63.0217 193.859 62.8982V54.5396L176.895 54.3687V51.8896H193.859V48.3752C193.859 48.3087 194.011 48.2233 194.116 48.2233C194.562 48.2138 195.455 48.4607 195.901 48.3467C196.709 48.1378 199.321 46.3426 200.128 45.7632L201.705 44.5189H183.819V41.9829H204.878C204.878 41.9829 205.068 41.8594 205.229 41.8594C205.419 41.8594 206.92 42.7807 207.119 42.9707C207.68 43.5026 207.043 43.3981 206.673 43.6546C206.046 44.101 205.315 44.9083 204.64 45.4307C202.912 46.7795 201.021 48.0428 199.131 49.1446C198.761 49.3631 196.994 50.1894 196.861 50.3319C196.604 50.6168 196.813 51.4812 196.747 51.8896H196.737Z" fill="white"/>
<path d="M58.0564 43.3599L84.2444 43.4738C84.2159 45.5635 84.1399 47.6626 84.0164 49.7522C83.8169 53.0292 83.4655 60.9413 81.9647 63.6008C80.4639 66.2603 77.6617 65.6144 75.1921 65.586C74.2802 65.586 72.9599 65.7189 72.086 65.586C71.3926 65.4815 71.5351 64.6646 71.3356 64.0377C71.2691 63.8288 70.6992 62.7649 70.7562 62.7175L73.8053 62.9549C75.0971 62.7459 77.9562 63.4393 78.9346 62.537C80.0459 61.5112 80.5114 56.876 80.6728 55.2898C80.9863 52.2503 81.0813 49.1823 81.2523 46.1239H69.9488C69.3694 49.7617 68.6285 53.4471 66.8902 56.7335C64.4965 61.2547 60.1366 64.4082 55.3587 66.0704C54.8838 65.1775 54.2949 64.3417 53.5635 63.6483C57.116 62.518 60.3931 60.5803 62.7202 57.6453C65.3324 54.3589 66.3868 50.2272 66.9472 46.1334H58.0659V43.3694L58.0564 43.3599Z" fill="white"/>
<path d="M142.395 32.5319L135.822 34.0327L135.015 31.962C139.793 30.8222 144.647 29.6824 149.054 27.4883C149.197 27.4788 151.049 29.0271 151.286 29.255C151.923 29.8629 151.144 29.616 150.83 29.7109C149.985 29.9769 148.997 30.4993 148.114 30.8127C147.145 31.1642 146.157 31.4491 145.169 31.7341V39.6842H151.172V42.3342H145.169V44.8133C145.169 44.9937 147.42 47.0359 147.762 47.4063C148.95 48.6791 150.08 50.0184 151.267 51.2816L149.605 53.5137L145.16 47.7578V65.8521H142.386V46.8364L140.99 49.9899C139.536 52.8964 138.083 55.9168 135.927 58.3579C135.623 57.4555 134.986 56.7052 134.54 55.8788C137.722 51.842 140.22 47.2353 141.807 42.3342H135.119V39.6842H142.386V32.5414L142.395 32.5319Z" fill="white"/>
<path d="M217.74 29.644V32.1231C217.74 32.4081 218.414 32.1801 218.604 32.1706C219.791 32.1421 221.644 32.0376 222.764 32.1706C222.926 32.1896 223.087 32.1706 223.154 32.3606C222.128 38.9049 220.713 45.5917 217.16 51.2527L218.718 53.4943L221.083 49.581V63.4676C221.083 63.5341 221.254 63.6291 221.359 63.6386C221.625 63.6576 222.242 63.5246 222.641 63.5246C222.85 63.5246 223.619 63.7525 223.619 63.4771V59.9627H232.387V42.2103H223.733C224.636 38.9619 225.396 35.666 225.823 32.3131L233.602 32.2941C233.697 32.3226 233.878 32.1706 233.878 32.1231V29.644H217.73H217.74ZM229.736 44.7464V57.4267H223.619V44.7464H229.736Z" fill="white"/>
<path d="M273.582 50.0464L274.456 44.0625C274.902 44.2335 277.818 44.224 277.97 44.3949C278.293 44.7939 277.248 44.9458 277.182 45.1548C277.182 46.6176 276.669 48.2323 276.593 49.6475C276.593 49.7805 276.564 49.8945 276.697 49.98L288.01 50.0844V62.4133C288.01 62.4893 288.162 62.6982 288.267 62.7362C288.913 63.0022 292.114 63.0212 292.912 62.9262C293.482 62.8597 293.7 62.7267 293.919 62.1948C294.498 60.7796 294.156 58.5854 294.356 57.1037C294.375 56.9897 294.327 56.8567 294.527 56.9327C294.812 57.0467 295.324 57.4361 295.695 57.6071C295.97 57.7306 296.939 57.9681 296.996 58.158C296.597 60.6181 297.167 65.1678 293.719 65.4622C292.342 65.5762 288.067 65.6237 286.871 65.2628C285.284 64.7878 285.265 63.819 285.123 62.4038C285.104 62.2613 284.999 62.0998 284.999 62.0618V52.554H276.061C275.653 53.4943 275.415 54.4917 275.016 55.432C272.898 60.4851 268.776 63.2871 263.713 65.0063C263.238 65.1678 261.158 65.8517 260.825 65.8137C260.493 65.7757 260.284 65.0158 260.075 64.7119C259.79 64.2939 259.467 63.9045 259.153 63.5056C265.185 62.3468 271.407 58.9559 272.879 52.554H261.803V50.018H273.572L273.582 50.0464Z" fill="white"/>
<path d="M194.781 34.4882C194.296 33.1395 193.688 31.8192 192.995 30.5654C192.795 30.195 191.58 28.4378 191.561 28.3048C191.532 28.1433 191.627 28.1148 191.741 28.0483C192.311 27.7349 193.299 27.5544 193.916 27.2505C194.144 27.2885 196.111 30.6699 196.338 31.1353C196.566 31.6007 197.355 33.2629 197.412 33.6429C197.431 33.7758 197.459 33.8803 197.317 33.9563L196.168 34.4787H203.149C205.039 32.4271 206.559 30.043 208.003 27.6684C208.44 27.8584 211.28 28.8177 211.28 29.1122C211.061 29.4636 210.558 29.3021 210.302 29.5206C210.045 29.739 209.314 30.9643 209.019 31.3538C208.288 32.3036 207.452 33.1869 206.721 34.1273C206.635 34.2413 206.502 34.2698 206.55 34.4787H213.237V43.5306C213.237 43.5306 213.075 43.7016 213.066 43.7016H210.473V37.0148H180.59V43.7016H178.11C178.11 43.7016 177.939 43.5401 177.939 43.5306V34.4787H184.399C183.895 33.4909 183.316 32.5411 182.689 31.6292C182.432 31.2493 180.837 29.2736 180.818 29.1217C180.78 28.9032 180.875 28.9792 180.97 28.9222C181.634 28.5328 182.423 28.3523 183.078 27.9439C184.693 29.7485 186.156 31.7052 187.286 33.8518L186.251 34.4882H194.79H194.781Z" fill="white"/>
<path d="M302.658 37.0244C302.24 46.0288 304.159 56.0401 299.457 64.1706C300.169 64.769 300.967 65.225 301.566 65.9563C303.143 63.6577 304.054 60.7607 304.586 58.0252C305.109 55.3562 305.261 52.6397 305.432 49.9326H317.723C317.723 49.9326 317.894 49.7712 317.894 49.7617V37.0244H302.668H302.658ZM315.12 47.3966C314.959 47.4631 314.778 47.2826 314.712 47.2826H305.422V39.6744H314.712C314.769 39.6744 314.959 39.494 315.12 39.5605V47.3966Z" fill="white"/>
<path d="M164.319 27.5735L168.014 27.8014C168.033 28.2858 167.206 28.3238 167.206 28.3808V51.7752L173.086 50.7399L173.552 53.3234C172.991 53.6749 167.197 54.2733 167.197 54.5962V65.8327H164.309V54.9951L150.983 57.3032L150.574 54.8242L164.309 52.1741V27.564L164.319 27.5735Z" fill="white"/>
<path d="M276.584 27.5165C276.612 27.4216 276.717 27.3931 276.821 27.3931C277.97 27.3931 279.129 27.6115 280.279 27.5735C280.45 28.0864 279.471 28.1624 279.471 28.3239V32.1802H295.505V39.6744C295.344 39.7409 295.163 39.5604 295.097 39.5604H292.617V34.7163H263.428V39.6744C262.583 39.5129 261.699 39.4939 260.844 39.6744C260.787 39.6554 260.654 39.5319 260.654 39.5129V32.1992H276.574V27.5355L276.584 27.5165Z" fill="white"/>
<path d="M67.6314 29.5302C67.7739 29.7202 66.7385 29.9671 66.672 30.0146C66.3681 30.1951 65.2282 32.7786 64.9242 33.339C62.1791 38.2782 58.3226 42.9513 53.7063 46.2283L51.531 44.4046C51.4171 44.2906 51.4266 44.2621 51.55 44.1671C52.101 43.7112 52.8989 43.2743 53.4973 42.7899C58.0567 39.0095 61.6757 33.8519 63.9554 28.3999L67.6314 29.5492V29.5302Z" fill="white"/>
<path d="M78.478 28.2671C81.3751 34.213 85.83 39.6176 91.1683 43.5404C90.2469 44.2053 89.5915 45.1171 88.8601 45.972C88.4137 46.1619 83.8923 41.3178 83.3223 40.6624C81.0806 38.0409 78.9149 35.0204 77.1862 32.0379C76.9677 31.6675 75.7614 29.5969 75.8278 29.3784C75.8943 29.1789 78.117 28.4191 78.478 28.2671Z" fill="white"/>
<path d="M281.428 35.0679L285.009 35.2958C284.942 35.7518 284.486 35.7043 284.201 35.9512V43.1984C284.239 43.4644 284.268 43.6639 284.515 43.8063C284.733 43.9298 285.883 44.0438 286.215 44.0628C287.725 44.1578 291.268 44.2623 292.655 44.0343C293.871 43.8348 293.767 42.5051 293.776 41.5267L296.322 42.5241C296.094 44.3572 295.78 46.1524 293.596 46.3709C291.686 46.5608 285.189 46.6083 283.479 46.2284C282.758 46.0669 282.055 45.687 281.713 44.9936C281.665 44.8986 281.428 44.1768 281.428 44.1293V35.0774V35.0679Z" fill="white"/>
<path d="M129.363 4.521C129.183 8.09237 129.971 12.1672 128.233 15.4346C128.109 15.653 127.625 16.2039 127.625 16.3369C127.625 16.4984 128.261 16.9828 128.366 16.9638C129.031 16.8308 130.294 13.136 130.171 12.3571H133.98V16.8498C134.17 16.8498 135.015 16.9163 135.015 16.6789V12.3571H139.052V15.7575C139.052 15.7575 138.89 15.9285 138.881 15.9285H136.402L136.696 16.8593C137.314 16.8403 140.087 17.0778 140.087 16.0995V4.521H129.354H129.363ZM133.98 11.4358H130.285V9.07069C130.285 9.07069 130.446 8.89972 130.456 8.89972H133.97V11.4358H133.98ZM133.98 7.97839H130.285V5.44233H133.98V7.97839ZM139.052 11.4358H135.015V8.89972H139.052V11.4358ZM139.052 7.97839H135.015V5.44233H139.052V7.97839Z" fill="white"/>
<path d="M225.358 5.44278C225.567 4.90138 225.662 4.05602 226.165 3.77107C226.108 3.6191 225.253 3.45763 225.073 3.47663C224.626 3.52412 224.588 5.12934 224.151 5.44278H220.637V16.9643C221.558 16.9453 221.805 17.2492 221.672 16.1569H229.518C229.518 16.1569 229.423 16.7648 229.623 16.9168C229.793 17.0402 230.553 16.9927 230.553 16.7933V5.44278H225.358ZM229.509 15.1311H221.948C221.948 15.1311 221.663 15.3305 221.663 15.0741V12.9465H229.509V15.1311ZM229.509 11.9016H221.948C221.948 11.9016 221.663 12.1011 221.663 11.8447V9.71703H229.509V11.9016ZM229.509 8.67221H221.948C221.948 8.67221 221.663 8.87168 221.663 8.61522V6.4781H229.509V8.67221Z" fill="white"/>
<path d="M323.165 16.1946C322.548 17.8568 320.297 16.679 319.784 15.4727C319.442 15.7007 317.428 17.0305 317.191 16.9165C317.039 16.85 316.792 16.4511 316.621 16.3371C317.257 15.9761 317.96 15.7102 318.568 15.2923C318.853 15.0928 319.404 14.7699 319.366 14.4089C319.29 13.706 318.673 12.6137 318.682 11.7969H316.336C316.288 11.7969 316.165 12.6327 316.203 12.7087C316.364 12.9747 317.818 13.6396 318.122 14.029C318.369 14.3424 317.913 14.6844 317.704 14.8933L316.089 13.6301C315.728 14.4849 315.215 16.2516 314.36 16.7455C313.952 16.9925 313.448 16.3941 313.486 16.2231C313.505 16.1281 313.838 15.9951 313.952 15.8717C314.892 14.8173 315.31 13.1646 315.339 11.7779C314.911 11.7114 314.36 12.0153 314.36 11.4359L313.895 12.0153L312.802 10.1727V16.8025C312.802 17.021 312.061 16.983 311.881 16.9735V10.1727L310.266 14.0955C310.095 14.2569 309.696 13.4306 309.696 13.3451C309.696 13.1836 310.798 10.942 310.96 10.4671C311.283 9.54577 311.473 8.57694 311.767 7.64611H309.924V6.72477H311.71C311.71 6.72477 311.881 6.5633 311.881 6.5538V3.49534H313.03C313.04 3.61882 312.802 3.7328 312.802 3.78029V6.71527H314.417C314.645 8.04504 313.724 7.56062 312.802 7.63661C312.831 7.92156 312.764 8.2445 312.802 8.51046C312.888 9.23233 313.98 10.5716 314.427 11.208C314.436 11.1415 314.417 10.98 314.427 10.98H318.578C318.169 8.51046 318.093 5.9934 318.112 3.48584H319.271C318.616 3.88477 319.024 4.44517 319.043 5.03407C319.072 5.91741 318.92 6.90524 319.157 7.75059C319.157 8.235 319.119 8.77641 319.157 9.25132C319.205 9.83072 319.47 10.3816 319.385 10.98H321.465L320.306 10.1157C320.373 9.85922 320.62 9.57427 320.886 9.65025C320.971 9.66925 322.168 10.4576 322.216 10.5241C322.358 10.7426 322.102 10.7996 322.035 10.9895H323.194V11.7969H319.613L320.078 13.8675C320.306 14.0385 321.256 12.2433 321.342 12.1863C321.446 12.1198 322.349 12.3288 322.377 12.3668C322.548 12.5472 322.14 12.6612 322.045 12.7847C321.769 13.1551 321.551 13.6016 321.266 13.972C320.686 14.7414 320.021 14.7983 321.218 15.7672C322.539 16.8405 322.548 15.4632 322.719 14.4374C322.824 14.5894 323.374 14.7699 323.393 14.7983C323.46 14.8838 323.213 16.0046 323.146 16.1946H323.165Z" fill="white"/>
<path d="M156.349 15.9856C155.712 17.9138 153.594 16.812 152.939 15.4727C152.559 15.3872 150.269 17.8853 149.832 16.2801C150.307 16.0616 152.53 14.9883 152.521 14.5134C152.521 14.3139 152.131 13.2596 152.046 12.9177C151.96 12.5472 151.884 12.1673 151.846 11.7969H149.5C148.797 13.0697 150.516 13.2311 151.219 13.9815C151.552 14.3329 151.134 14.5799 150.877 14.8933L149.263 13.6396C148.921 14.2759 148.816 14.9408 148.446 15.5867C148.037 16.2896 147.22 17.5244 146.679 16.2421C148.037 15.1308 148.398 13.4686 148.512 11.7874C148.123 11.7209 147.534 11.9963 147.42 11.5594C147.173 11.6544 147.22 12.1198 146.897 12.0153C146.679 11.4929 146.413 10.7806 146.118 10.3246C146.043 10.2107 146.128 10.1157 145.862 10.1727V16.9735C145.672 16.983 144.941 17.021 144.941 16.8025V10.4101L143.487 13.858L143.212 14.0955C143.231 13.801 142.879 13.5731 142.86 13.3356C142.851 13.2121 143.763 11.4074 143.905 11.037C144.314 9.9732 144.665 8.76691 144.827 7.63661H143.098V6.71527H144.941V3.48584H146.213C146.213 3.67581 145.9 3.65681 145.862 3.79928C145.815 3.97975 145.834 6.37333 145.881 6.5253C146.005 6.88624 147.144 6.64878 147.477 6.71527V7.63661H145.862C145.596 9.03286 146.897 9.89721 147.372 11.0845C147.42 11.113 147.505 10.98 147.534 10.98H151.742C151.571 10.2107 151.457 9.4033 151.4 8.61494C151.362 8.10203 151.305 7.51313 151.276 7.00972C151.219 5.85092 151.419 4.60664 151.162 3.49534H152.312C152.359 3.63781 152.198 3.7138 152.198 3.7233C152.008 4.3027 152.046 5.12905 152.074 5.74644C152.074 5.93641 152.188 6.12637 152.198 6.19286C152.198 6.19286 152.198 6.19286 152.198 6.20236V8.04504C152.198 8.38698 152.293 9.04236 152.312 9.48878C152.34 10.1632 152.492 10.1632 152.54 10.3721C152.578 10.5146 152.511 10.9895 152.54 10.9895H154.62L153.736 10.3151C153.129 10.0967 153.3 10.0492 153.698 9.71674C153.736 9.67875 153.784 9.61226 153.812 9.60276C154.183 9.79273 155.218 10.2771 155.38 10.6381C155.446 10.7996 155.199 10.847 155.199 10.98H156.358V11.7874H152.777C152.777 12.4998 153.072 13.1836 153.243 13.858C153.338 13.934 153.945 13.0981 154.031 12.9747C154.563 12.1863 154.126 11.8729 155.437 12.3668L154.724 13.5541C154.183 14.4374 153.138 14.6939 154.23 15.7102C155.399 16.8025 155.931 15.5962 155.788 14.4469C156.738 14.7034 156.624 15.1973 156.358 15.9951L156.349 15.9856Z" fill="white"/>
<path d="M153.823 9.59331C153.823 9.59331 153.746 9.6788 153.708 9.70729C153.689 9.6788 153.67 9.6598 153.661 9.6408C153.584 9.52682 153.661 9.49833 153.823 9.59331Z" fill="white"/>
<path d="M338.658 13.744H337.623V10.0586H334.621V9.13728H338.544V8.32992H336.35V7.29461H337.965V6.48725C337.727 6.68671 336.473 6.61073 336.359 6.47775C336.283 6.38277 336.388 5.76538 336.35 5.56591H338.136C338.345 5.56591 338.326 4.92002 338.307 4.75855H336.35C336.388 4.4641 336.283 4.06517 336.35 3.79922C336.369 3.73273 336.806 3.68524 336.578 3.49528C336.511 3.43829 335.685 3.53327 335.495 3.49528L335.429 4.76805H332.892C332.93 4.4736 332.826 4.07467 332.892 3.80872C332.911 3.74223 333.348 3.69474 333.12 3.50477C333.054 3.44778 332.227 3.54277 332.038 3.50477L331.971 4.77755H330.242V5.58491H331.971V6.62022H330.584V7.24711L331.971 7.3136V8.34892H329.891V9.15628H333.7V10.0776H330.812C330.651 10.9515 331.04 12.8416 330.793 13.573C330.679 13.9054 329.957 13.7155 329.653 13.763V14.5038C329.672 14.6653 330.812 14.5038 330.812 14.5703V16.9924H331.734V14.5703H336.692C336.654 14.8173 336.806 16.185 336.521 16.185H334.849C335.011 16.375 335.049 16.8974 335.267 16.9734C335.657 17.1064 337.062 17.0209 337.395 16.7074C337.87 16.2705 337.48 14.7033 337.613 14.5703C337.765 14.4184 338.953 14.9788 338.649 13.763L338.658 13.744ZM333.69 13.744H331.734V12.5947H333.69V13.744ZM333.69 11.9013H331.734V10.866H333.69V11.9013ZM332.883 5.55641H335.419C335.391 5.81287 335.514 6.40176 335.315 6.54424C335.191 6.62972 333.13 6.63922 332.997 6.54424C332.788 6.40176 332.921 5.80337 332.892 5.55641H332.883ZM332.883 8.32992V7.29461H335.419V8.32992H332.883ZM336.692 13.744H334.612V12.5947H336.692V13.744ZM336.692 11.9013H334.612V10.866H336.692V11.9013Z" fill="white"/>
<path d="M165.591 4.06543V8.90958H170.093V15.8813C170.093 16.1663 168.726 16.0238 168.479 16.0523L168.821 15.4824C167.89 15.4064 165.98 14.3616 165.705 13.4593C165.638 13.2408 165.743 13.3073 165.876 13.2883C166.398 13.2218 167.282 13.2693 167.842 13.2883C168.507 13.3073 169.096 13.7347 168.707 12.5379C168.574 12.443 165.971 12.7659 165.43 12.5854C165.088 12.4714 165.287 11.6356 165.24 11.3317H168.583C168.602 11.1702 168.612 10.5243 168.412 10.5243H166.74C166.949 10.2583 167.092 9.9069 167.31 9.65994C167.434 9.51747 167.671 9.55546 167.662 9.37499L166.569 9.02356C166.427 9.337 166.094 10.3343 165.819 10.4673C165.411 10.6668 164.423 10.4388 163.938 10.5338C163.416 9.74543 163.416 8.71961 162.247 9.26101L162.941 10.5243H161.326V11.3317H164.328C164.29 11.6166 164.442 12.3955 164.223 12.5474C163.957 12.7279 161.583 12.5759 161.098 12.4809V13.4023C161.26 13.4688 161.44 13.2883 161.497 13.2883H164.09C163.796 14.6181 162.171 15.2545 160.975 15.5964C161.108 15.7389 161.374 16.2328 161.507 16.2803C161.744 16.3468 163.368 15.5489 163.663 15.3494C164.261 14.941 164.546 14.4376 165.069 13.9817C165.534 14.903 166.427 15.5394 167.358 15.9668C167.605 16.0808 168.327 16.2043 168.365 16.2328C168.564 16.4038 168.545 16.9262 168.602 16.9642C168.783 17.1256 171.015 16.9832 171.015 16.3468V4.06543H165.591ZM170.084 8.09272H166.503V6.82944H170.084V8.09272ZM169.979 6.08857C169.846 6.18356 166.921 6.19305 166.702 6.12657C166.36 6.01259 166.56 5.17673 166.512 4.87279H170.093C170.055 5.15774 170.207 5.9366 169.989 6.08857H169.979Z" fill="white"/>
<path d="M274.389 35.5236C274.494 36.1505 273.677 36.0081 273.572 36.1695C273.43 36.369 273.041 38.1737 272.86 38.6676C271.103 43.5212 267.123 45.9908 262.278 47.2256C261.946 47.3111 261.177 47.615 260.949 47.3966C260.569 47.0451 260.046 45.6394 259.505 45.2024C263.532 44.5186 267.74 42.8943 269.621 39C270.2 37.8032 270.476 36.502 270.799 35.2197C271.055 35.0297 273.819 35.6376 274.38 35.5141L274.389 35.5236Z" fill="white"/>
<path d="M319.158 29.7676V32.2371L300.578 32.2941V29.7676H319.158Z" fill="white"/>
<path d="M236.309 5.79416C236.233 6.27858 234.58 8.4442 234.286 8.4157C234.191 8.4157 233.858 7.95978 233.649 7.92179C234.466 6.92447 235.245 5.95564 235.825 4.79684C235.939 4.56888 236.262 3.54306 236.319 3.50507C236.518 3.36259 237.306 3.69503 237.572 3.72353C237.145 4.02748 237.059 4.39791 236.879 4.87283H239.938C239.938 4.87283 240.46 5.13878 240.46 5.16727C240.46 5.45222 239.966 6.30707 239.995 6.7155H242.303L242.483 3.48607H243.804C243.88 3.84701 243.519 3.64754 243.452 3.99898C243.319 4.73985 243.509 5.89865 243.338 6.706H246.796V7.74132C246.672 7.78881 246.539 7.62734 246.511 7.62734H243.737C243.69 7.62734 243.585 7.74132 243.614 7.8648C243.899 9.565 245.371 11.7306 247.033 12.3575C246.558 13.3833 246.406 13.4118 245.542 12.7469C244.174 11.6926 243.794 10.6668 243.12 9.17557C242.882 8.65316 242.892 9.28005 242.816 9.47002C242.284 10.8948 241.533 11.9586 240.213 12.7469C239.995 12.8799 239.225 13.3168 239.026 13.2883C238.978 13.2883 238.513 12.5855 238.38 12.4715C240.08 11.9776 241.4 10.6193 241.923 8.91911C241.989 8.70065 242.341 7.62734 242.018 7.62734H240.289C240.289 7.62734 240.128 7.78881 240.004 7.74132C240.004 7.49436 240.071 7.14293 239.776 7.04794C239.254 8.96661 237.905 10.8663 236.366 12.1201C236.062 12.367 234.666 13.3453 234.39 13.3738C234.115 13.4023 233.915 12.7944 233.659 12.6425L235.312 11.6451L236.661 10.4578C235.958 10.0494 235.378 9.37503 234.58 9.12808C234.552 9.09008 235.122 8.47269 235.217 8.47269C235.54 8.4442 236.945 9.70748 237.183 9.70748C237.449 9.70748 238.19 8.78614 237.933 8.50119C237.677 8.21624 235.977 7.45637 235.977 7.34239C236.651 6.23109 237.696 7.48487 238.513 7.8648L239.206 5.79416H236.319H236.309Z" fill="white"/>
<path d="M57.4769 7.75077L57.7049 3.48602C57.9234 3.50501 59.1107 3.39103 59.0917 3.65699C58.4838 3.91344 58.7973 4.97726 58.7498 5.62314C58.7118 6.21204 58.5598 6.91491 58.5598 7.51331C58.5598 7.60829 58.5978 7.75077 58.6833 7.75077H64.6295V8.78609H58.9777C59.9371 12.063 61.4949 14.5136 64.7055 15.9193C64.7815 15.9478 64.9524 15.9003 64.867 16.0998C64.848 16.1473 64.1735 16.9356 64.1166 16.9356C64.0026 16.9451 62.9482 16.3658 62.7487 16.2518C61.153 15.2639 59.9561 13.6967 59.1107 12.0535L58.1704 9.8214C57.5529 12.5569 55.9761 14.903 53.5445 16.3183C53.3545 16.4322 52.3476 16.9831 52.2337 16.9546C52.1767 16.9451 51.5212 16.1378 51.5877 16.0428C54.7888 14.8935 56.7076 12.0345 57.3535 8.77659H51.7017V7.74127H57.4674L57.4769 7.75077Z" fill="white"/>
<path d="M182.546 3.82773V5.89836H186.127V6.8197H182.546V9.6977H186.935V10.619H181.511C181.464 10.828 181.71 10.695 181.739 10.733C181.919 10.942 181.502 10.9895 181.407 11.1414L179.668 15.1117L184.627 14.8838C184.161 14.1239 183.629 13.402 183.012 12.7562C183.211 12.6137 183.582 12.2527 183.829 12.2907C184.142 12.3287 186.526 15.6626 186.65 16.1566C186.773 16.679 186.213 16.717 185.833 16.9639L185.121 15.7101L177.702 16.394L177.351 15.2447C177.702 15.1972 178.291 15.3682 178.566 15.1307C178.785 14.9313 179.697 12.7182 179.858 12.2717C180.048 11.7493 180.295 11.1604 180.352 10.6285H177.351V9.70719H181.502V6.8292H178.044V5.90786H181.502V3.48579C181.948 3.4478 183.458 3.4478 182.537 3.82773H182.546Z" fill="white"/>
<path d="M95.2625 11.2365C95.2625 11.2365 95.177 11.322 95.1485 11.322H92.033C92.033 11.322 91.862 11.1605 91.862 11.151V7.40868H94.8636V6.48735H91.862V3.83731C91.862 3.83731 92.033 3.84681 92.09 3.83731C91.881 3.41939 91.2256 3.66634 90.8171 3.60935V6.48735H86.5522V3.83731C86.5522 3.83731 86.7232 3.84681 86.7802 3.83731V3.72333L85.5073 3.60935V6.31638C85.5073 6.31638 85.3459 6.48735 85.3364 6.48735H82.6292V7.40868H85.3364C85.3364 7.40868 85.5073 7.57016 85.5073 7.57965V11.208C84.377 11.3695 83.1802 11.4075 82.0498 11.208V12.2433H95.4335C95.4145 12.0249 95.538 11.2555 95.2625 11.227V11.2365ZM90.8266 11.151C90.8266 11.417 90.2472 11.208 90.0857 11.1985C88.9174 11.17 87.711 11.151 86.5617 11.322V7.39919H90.8266V11.1415V11.151Z" fill="white"/>
<path d="M109.976 4.1792V16.3371C109.976 16.9734 107.497 17.0494 107.05 16.9734L106.633 16.0426H108.77C108.77 16.0426 108.941 15.8906 109.055 15.9286V5.27151C109.055 5.21452 108.865 5.08154 108.77 5.09104H98.9006V16.9639H97.8652V4.1792H109.976Z" fill="white"/>
<path d="M292.674 9.59325H291.003V5.10054H292.503V4.1792H285.351V5.10054H286.852V9.59325H285.066C284.847 9.59325 284.885 10.3246 284.895 10.5146H286.738C286.738 12.8037 286.006 14.6084 284.372 16.1661C284.249 16.2801 283.898 16.2706 284.164 16.5175C284.933 17.2394 285.142 16.8405 285.769 16.1661C286.529 15.3397 287.127 14.1619 287.403 13.0791C287.526 12.5947 287.659 10.9135 287.783 10.714C287.821 10.6476 288.143 10.5146 288.191 10.5146H289.92C289.92 10.5146 290.091 10.6761 290.091 10.6856V16.9639H291.012V10.6286C291.392 10.3246 292.56 10.714 292.75 10.5811C292.959 10.4291 292.883 9.59325 292.684 9.59325H292.674ZM290.081 9.59325H287.773V5.10054H290.081V9.59325Z" fill="white"/>
<path d="M115.628 5.44254C115.457 5.27157 113.244 6.01244 112.816 5.90796C112.702 5.87946 112.436 5.15759 112.512 5.0911C113.652 4.98662 114.897 4.70167 115.998 4.36923C116.521 4.21726 117.946 3.53338 118.24 3.50488C118.345 3.50488 119.161 4.01779 119.199 4.05579C119.228 4.09378 119.247 4.22676 119.133 4.28375C118.763 4.47371 116.72 5.02462 116.606 5.20508L116.549 7.85512H119.437V8.77645H116.73C116.502 8.77645 116.502 9.73579 116.616 9.92575L119.218 12.0534C119.56 12.2338 118.886 13.0412 118.81 13.0412C118.725 13.0412 117.794 12.0059 117.604 11.8349C117.328 11.588 116.91 11.2175 116.568 11.0845V16.964H115.647V10.6286L114.469 12.7373C114.279 12.9937 113.082 15.0169 112.759 14.7794C112.807 14.4944 112.256 14.048 112.351 13.8581C112.408 13.7441 112.75 13.4971 112.873 13.3357C113.909 11.9869 114.735 10.5146 115.409 8.95692C115.39 8.62448 113.082 8.81445 112.721 8.89043C112.408 8.79545 112.56 8.12107 112.531 7.86461H115.647V5.44254H115.628Z" fill="white"/>
<path d="M274.095 8.55801C274.542 8.58651 274.684 8.69099 275.074 8.95694C274.342 9.54584 273.621 10.1252 272.823 10.6286C272.557 10.7996 271.331 11.379 271.284 11.455C271.208 11.5785 271.284 11.8539 271.265 12.0154H277.268V12.9367H271.265V16.2232C271.265 17.2015 268.491 16.9545 267.874 16.983L267.456 16.0522H270.049C270.049 16.0522 270.22 15.8907 270.22 15.8812V12.9462H264.217V12.0249H270.22C270.258 11.8159 270.173 10.7996 270.22 10.7521C270.258 10.7141 270.913 10.7806 271.227 10.6666C271.417 10.5907 272.49 9.85928 272.68 9.69781C272.804 9.59333 272.918 9.58383 272.87 9.37487H266.639V8.56751C269.09 8.67199 271.645 8.43454 274.076 8.56751L274.095 8.55801Z" fill="white"/>
<path d="M76.8064 8.55802C77.1484 8.57702 77.3668 8.7005 77.6708 8.95695C77.1484 9.35588 76.6829 9.8118 76.1415 10.1917C75.7995 10.4292 74.0708 11.3505 74.0043 11.455C73.9283 11.5975 74.0043 11.8444 73.9758 12.0059H79.979V12.9273H73.9758V15.9857C73.9758 16.0902 73.7003 16.6316 73.5578 16.7266C73.1494 17.002 70.6607 17.1065 70.4518 16.8501C70.3568 16.7361 70.2143 16.2232 70.1668 16.0427H72.76C72.76 16.0427 72.9309 15.8812 72.9309 15.8717V12.9368H66.9277V12.0154H72.7505C73.0544 12.0154 72.8644 10.8091 72.9214 10.7426C72.9594 10.7046 73.5483 10.7426 73.8903 10.6192C74.1183 10.5337 75.1061 9.87829 75.2866 9.70732C75.4006 9.59334 75.5051 9.55535 75.4576 9.36538L69.5304 9.46986C69.2359 9.38438 69.3594 8.78598 69.3404 8.55802C71.7816 8.672 74.3557 8.40605 76.7779 8.55802H76.8064Z" fill="white"/>
<path d="M196.158 4.06529C196.196 4.24576 195.949 4.16977 195.873 4.29325C195.693 4.5782 196.016 6.38288 196.101 6.8388C196.795 10.6001 198.761 14.3805 202.389 15.9952C202.37 16.0427 201.744 16.6696 201.696 16.6886C201.345 16.85 200.309 16.1092 199.977 15.8717C197.526 14.086 196.187 11.189 195.408 8.33004C194.999 9.33686 194.771 10.4102 194.335 11.4075C193.698 12.8417 192.663 14.3235 191.494 15.3683C191.124 15.7007 189.671 16.888 189.243 16.6981C189.053 16.6126 188.844 16.1852 188.55 16.1187C191.2 14.7034 192.976 12.4238 193.888 9.58382C194.477 7.74114 194.6 5.88897 194.79 3.9798C195.256 3.94181 195.721 3.93231 196.158 4.08429V4.06529Z" fill="white"/>
<path d="M251.431 5.32874C251.289 5.18626 249.531 5.85114 249.199 5.79415C249.104 5.77516 248.819 5.05328 248.895 4.9773C249.816 4.84432 250.747 4.59737 251.64 4.31242C252.011 4.19844 253.692 3.47656 253.806 3.47656C253.958 3.47656 254.376 3.88499 254.518 4.01797C254.575 4.06546 254.841 4.10345 254.67 4.28392C254.585 4.36941 252.761 4.83482 252.476 4.9773V7.74131H254.556V8.66265H252.476C251.953 9.78345 254.48 11.2177 254.537 11.8541C254.547 11.9871 254.024 12.6899 253.863 12.5855C253.549 11.9206 253.027 11.2177 252.476 10.7428V16.9642H251.441V10.3913L250.538 12.31C250.415 12.4905 249.332 14.4566 249.132 14.3047C249.18 14.0292 248.686 13.6018 248.695 13.4403C248.705 13.3168 249.902 11.6926 250.111 11.3127C250.557 10.5053 251.023 9.57449 251.203 8.66265H248.895V7.74131H251.431V5.31924V5.32874Z" fill="white"/>
<path d="M279.348 4.17942C279.082 5.74664 280.165 5.13875 281.191 5.10076C281.058 6.83895 280.621 8.75761 279.947 10.3628C279.833 10.6288 279.149 11.7591 279.158 11.8351C279.158 11.8731 279.538 12.4715 279.576 12.5095C279.652 12.5949 279.747 12.6329 279.814 12.5759C279.937 12.4715 280.27 11.5501 280.507 11.4266V16.1568H281.428V14.884H284.373C284.373 14.884 284.544 14.7226 284.544 14.7131V8.66263H281.542C281.742 8.10223 282.055 5.48069 282.293 5.20524C282.521 4.93929 283.005 5.20524 283.328 5.20524C283.889 5.22424 284.449 5.18624 285.009 5.20524V4.16992H279.358L279.348 4.17942ZM283.623 9.59347V13.9722H281.428V9.59347H283.623Z" fill="white"/>
<path d="M299.77 11.3222C299.827 10.9803 299.808 9.32756 300.064 9.26108C300.216 9.22308 300.976 9.48904 301.271 9.36556C301.385 9.6885 301.005 9.56502 300.938 9.78348C300.834 10.1159 300.881 10.9328 300.805 11.3317H304.728V15.6535C304.728 16.0144 306.352 16.0144 306.618 15.9289C307.065 15.7769 306.894 14.2857 306.922 13.8678L307.958 14.2097C307.692 15.0741 308.053 16.6128 306.837 16.8312C306.02 16.9737 303.693 17.0877 303.693 15.8814V12.253H300.986C300.444 12.253 300.425 12.8989 300.254 13.2504C299.561 14.6751 298.649 15.644 297.196 16.2993C296.892 16.4323 295.438 17.0022 295.229 16.9547C295.049 16.9167 294.859 16.3658 294.707 16.2234C295.343 15.9099 296.056 15.7674 296.711 15.454C298.022 14.8271 299.19 13.7348 299.437 12.2436H295.514C295.505 12.0536 295.467 11.3222 295.685 11.3222H299.779H299.77Z" fill="white"/>
<path d="M153.899 41.5265C154.174 41.46 157.252 43.5496 157.727 43.8915C158.287 44.2905 162.105 47.1685 162.01 47.5674C161.374 47.8428 160.662 49.0491 160.168 49.3056C160.054 49.3626 160.054 49.3626 159.94 49.3056C159.664 49.1631 158.885 48.2038 158.553 47.9188C156.558 46.1521 154.335 44.6324 152.094 43.1982L153.908 41.536L153.899 41.5265Z" fill="white"/>
<path d="M162.58 36.4355L160.471 38.0502C159.065 36.4545 157.451 35.0488 155.769 33.7475C155.171 33.2821 154.145 32.7312 153.661 32.2752C153.575 32.1993 153.442 32.1803 153.471 32.0093C153.509 31.8478 155.313 30.4231 155.541 30.4896C155.864 30.575 157.479 31.7908 157.888 32.0758C158.648 32.6267 159.445 33.2346 160.158 33.8425C160.481 34.1179 162.779 36.1221 162.57 36.426L162.58 36.4355Z" fill="white"/>
<path d="M158.894 4.06543V16.9737H159.816V8.90958H164.195V4.06543H158.885H158.894ZM163.283 8.09272H159.825V6.82944H163.283V8.09272ZM163.169 6.08857C163.036 6.18356 160.224 6.19305 160.006 6.12657C159.664 6.01259 159.863 5.17673 159.816 4.87279H163.273C163.235 5.15774 163.387 5.9366 163.169 6.08857Z" fill="white"/>
<path d="M73.1685 5.90773C73.387 5.71776 72.1711 4.05555 72.1236 3.7801C72.0856 3.53315 72.1806 3.63763 72.2851 3.59963C72.3801 3.56164 72.8361 3.40967 72.874 3.40967C73.083 3.42866 74.2134 5.45181 74.1944 5.62278C74.1849 5.75575 73.8144 5.72726 73.8524 5.90773H76.2176C76.4076 5.90773 77.6614 3.70412 77.7944 3.61863C78.0319 3.47616 78.7633 3.90358 79.0387 3.99856C78.3548 4.47348 77.9274 5.24285 77.4239 5.89823H79.7321V9.12766H78.6968V6.81957H68.2007V9.12766H67.2793V5.89823H69.4735C69.4165 5.26184 68.5046 4.59696 68.3337 4.10305C68.2767 3.93208 69.0271 3.62813 69.0746 3.62813C69.3025 3.64713 70.5659 5.42331 70.5279 5.71776C70.5089 5.84124 70.2334 5.70826 70.2904 5.89823H73.178L73.1685 5.90773Z" fill="white"/>
<path d="M270.581 5.9081C270.268 5.16723 269.926 4.42636 269.432 3.78048C269.432 3.70449 270.201 3.37205 270.287 3.38155C270.448 3.41954 271.569 5.41419 271.522 5.72763C271.503 5.86061 271.227 5.71814 271.284 5.9081C271.911 5.81312 272.946 6.05058 273.507 5.88911C274.01 5.74663 274.818 3.86596 275.207 3.657C275.445 3.53352 276.67 3.97044 276.271 4.17941C276.223 4.2079 276.119 4.15091 276.005 4.26489C275.587 4.69232 275.245 5.49018 274.742 5.9176H277.05V9.14703H276.128V6.83894H265.632V9.14703H264.711V5.9176H266.905L265.632 4.01794C265.889 4.02743 266.202 3.68549 266.383 3.657C266.668 3.60951 268.045 5.63265 267.931 5.79412C267.893 5.84161 267.665 5.71814 267.713 5.9176H270.6L270.581 5.9081Z" fill="white"/>
<path d="M327.345 3.48598C327.544 3.52397 328.437 3.43849 328.494 3.48598C328.77 3.73293 328.266 3.69494 328.266 3.71394V6.70591H329.995V7.62725H328.266C328.285 8.00718 328.209 8.40611 328.323 8.78604C328.475 9.28946 329.967 10.8757 329.967 11.2556C329.967 11.4551 329.568 11.778 329.482 12.006L328.266 10.1633V16.9641H327.345V10.1633L325.55 13.9626C325.388 14.2571 324.951 13.3927 324.942 13.3167C324.923 13.0888 325.569 12.2339 325.711 11.9395C326.338 10.6192 326.899 9.0615 327.108 7.62725H325.151V6.70591H327.174C327.174 6.70591 327.345 6.54444 327.345 6.53494V3.47648V3.48598Z" fill="white"/>
<path d="M259.154 3.48602C259.382 3.50501 260.427 3.39103 260.417 3.65699C260.417 3.68548 260.113 3.93244 260.18 4.11291V12.0155L262.26 11.6736C262.203 11.9015 262.469 12.4429 262.365 12.5854C262.298 12.6804 260.484 12.9274 260.18 12.9369V16.9736H259.144V13.1743L254.481 13.9817C254.433 13.9817 254.272 13.2313 254.291 13.1268C254.338 12.8799 258.594 12.3385 259.144 12.2435V3.48602H259.154Z" fill="white"/>
<path d="M106.86 9.25146H100.98V15.017H101.902V13.8677H106.86V9.26096V9.25146ZM105.939 13.0508H101.902V10.2298C101.902 9.96384 102.481 10.1728 102.643 10.1823C103.45 10.2013 104.277 10.2013 105.074 10.1823C105.255 10.1823 105.939 9.94484 105.939 10.2298V13.0508Z" fill="white"/>
<path d="M300.805 3.48584H302.078C301.565 3.94176 301.755 4.48316 301.736 5.10056H307.388V7.75059H306.353V6.02189H296.198V7.75059H295.163V5.10056H300.815V3.48584H300.805Z" fill="white"/>
<path d="M124.167 3.8847C124.281 3.50477 125.145 3.8942 125.44 3.82771L125.202 4.34062L125.183 16.1945C125.107 17.0874 122.144 17.1254 121.916 16.8499C121.802 16.7169 121.64 16.1375 121.631 15.9286H124.167V3.8847Z" fill="white"/>
<path d="M149.899 3.95127C149.661 4.27421 148.579 6.00291 148.683 6.24986C148.721 6.34485 149.149 6.74378 149.263 6.71528L150.203 5.09107C150.393 5.07207 151.219 5.44251 151.058 5.67047C151.048 5.68946 150.811 5.70846 150.659 5.90792C150.421 6.21187 150.193 6.80077 149.956 7.1617C149.576 7.7506 149.177 8.3395 148.75 8.8999C149.12 8.84291 149.832 9.01388 150.136 8.84291C150.355 8.71943 149.861 8.08304 149.785 7.91207C149.785 7.81709 150.288 7.61762 150.402 7.63662C150.64 7.69361 151.352 9.4508 151.286 9.73575C151.267 9.81174 150.63 10.0872 150.583 10.0397C150.545 10.0017 150.659 9.54578 150.402 9.47929C150.298 9.4508 148.617 9.66926 148.341 9.70726C148.161 9.73575 147.638 9.97321 147.581 9.92572C147.543 9.89722 147.306 9.04237 147.344 9.00438C147.363 8.98538 147.676 9.04237 147.876 8.8999C147.99 8.81441 148.854 7.55113 148.835 7.46565C148.721 7.13321 147.23 6.0599 147.239 5.95542C147.239 5.92692 147.562 5.452 147.581 5.43301C147.724 5.33802 147.961 5.72746 148.151 5.66097L148.959 3.59033L149.88 3.94177L149.899 3.95127Z" fill="white"/>
<path d="M316.735 3.95131C316.82 4.25526 316.535 4.16028 316.403 4.35974C316.298 4.52121 315.538 5.92697 315.51 6.02195C315.424 6.3354 316.061 6.8483 316.27 6.71533C316.346 6.66784 316.896 5.1671 316.972 5.11011C317.134 4.99613 317.799 5.41406 317.998 5.50904L317.552 5.86998L315.69 8.90944H317.077C317.153 8.84295 316.317 7.48469 317.238 7.65566C317.571 7.72215 318.834 10.2867 317.428 10.0587C317.428 9.87827 317.457 9.54583 317.248 9.49834C316.953 9.42235 314.902 9.87827 314.427 9.94476C314.493 9.74529 314.123 9.08991 314.199 9.02342C314.218 9.00442 314.531 9.06141 314.788 8.86195C314.911 8.76697 315.7 7.57018 315.69 7.48469C315.396 6.98128 314.664 6.58235 314.322 6.20242C314.056 5.90797 314.455 5.48055 314.607 5.48055C314.674 5.48055 314.892 5.7655 315.006 5.68001C315.092 5.61352 315.747 3.88483 315.814 3.60938L316.735 3.96081V3.95131Z" fill="white"/>
<path d="M322.728 9.93548C322.681 9.8215 322.643 9.41307 322.595 9.37508C322.5 9.2896 320.344 9.53655 320.021 9.60304C319.822 9.64103 319.689 9.8215 319.67 9.8215C319.518 9.8215 319.413 9.23261 319.271 9.12812C319.423 8.6912 319.47 9.03314 319.784 8.78618C319.888 8.7007 320.648 7.5514 320.639 7.47542C320.221 7.07649 319.822 6.4496 319.271 6.25013C319.28 6.10766 318.986 5.71823 319.499 5.49027C319.632 5.43328 319.774 5.72772 319.955 5.67073L320.762 3.6001L321.684 3.95154L320.496 5.94618C320.211 6.17414 321.057 6.86752 321.104 6.82953L321.978 5.09134C322.168 5.07234 322.994 5.44277 322.833 5.67073C322.823 5.68973 322.633 5.68973 322.5 5.8607C321.845 6.72505 321.351 7.92184 320.639 8.78618L322.254 8.6722L321.788 7.75087C322.624 7.29495 322.728 7.91234 323.042 8.63421C323.365 9.36558 323.754 9.77401 322.709 9.94498L322.728 9.93548Z" fill="white"/>
<path d="M156.586 9.70708C155.589 10.2295 155.96 9.6216 155.675 9.42213C155.466 9.27966 154.06 9.48862 153.822 9.6026C153.651 9.50762 153.585 9.53611 153.661 9.65009C153.547 9.56461 153.328 9.5741 153.195 9.6026C152.853 9.66909 152.806 10.0965 152.559 9.37464C152.284 8.58628 152.749 8.98521 152.986 8.76675C153.053 8.70976 153.803 7.54146 153.803 7.46548C153.784 7.19952 152.616 6.43966 152.436 6.2022C152.312 6.03123 152.369 5.92675 152.331 5.79377L152.626 5.44233C152.806 5.44233 152.939 5.67029 152.967 5.67029C153.195 5.67029 153.879 3.62815 154.003 3.61865L154.867 3.95109C154.934 4.03658 154.582 4.16006 154.516 4.26454C154.421 4.39752 153.632 5.89825 153.613 5.99323C153.547 6.24969 154.088 6.88608 154.345 6.59163C154.63 6.27818 154.943 5.51832 155.105 5.10039L156.026 5.44233L153.832 8.78574L155.447 8.67176L154.981 7.75042C155.162 7.77892 155.551 7.44648 155.665 7.52247C155.789 7.60795 156.662 9.6026 156.596 9.69758L156.586 9.70708Z" fill="white"/>
<path d="M302.42 6.1359C302.629 6.17389 303.626 6.07891 303.693 6.1359C303.968 6.38286 303.465 6.34486 303.465 6.36386V9.07088C303.465 9.07088 303.626 9.24185 303.636 9.24185H306.523C306.713 9.24185 306.78 8.4345 306.875 8.4345C307.53 8.70995 307.787 8.53898 307.568 9.36533C307.283 10.4481 305.127 10.2297 304.206 10.1727C303.655 10.1347 302.42 10.0492 302.42 9.29884V6.1264V6.1359Z" fill="white"/>
<path d="M120.596 5.21436L121.869 5.32834C121.907 5.49931 121.527 5.5088 121.527 5.61329V13.3924H120.605V5.21436H120.596Z" fill="white"/>
<path d="M107.678 6.71533H100.174V7.63667H107.678V6.71533Z" fill="white"/>
<path d="M299.998 6.47799C299.523 6.56347 299.523 7.29484 299.324 7.71277C298.896 8.62461 298.345 9.2705 297.452 9.76441C297.129 9.93538 295.486 10.6003 295.268 10.4673C295.239 10.4483 294.821 9.91638 294.812 9.87839C294.736 9.69792 294.869 9.72642 294.954 9.67892C296.037 9.18501 297.224 9.17551 298.022 8.01672C298.326 7.57979 298.659 6.19304 298.735 6.13605C298.792 6.09805 300.14 6.29752 299.998 6.47799Z" fill="white"/>
<path d="M87.4738 13.5161C87.4833 13.706 87.2269 13.6206 87.0654 13.744C86.4765 14.1905 85.8685 14.9598 85.2226 15.4727C84.8617 15.7577 83.4274 16.8405 83.0949 16.926C82.9239 16.9735 82.221 16.4416 82.1735 16.3371C82.0786 16.1566 82.259 16.1756 82.3255 16.1376C83.7028 15.2923 85.1466 14.4469 86.0965 13.0981L87.4833 13.5066L87.4738 13.5161Z" fill="white"/>
<path d="M90.1338 13.5163C90.4662 13.4878 90.8367 12.9749 91.1692 13.1079L95.2061 16.3373C94.9781 16.4798 94.3892 17.0307 94.1707 16.9167L90.1338 13.5068V13.5163Z" fill="white"/>
<path d="M174.929 16.8596L173.894 16.1093C174.425 15.7293 176.449 11.3791 176.705 11.4456C176.81 11.4741 177.342 11.949 177.332 12.0535C177.323 12.2054 176.373 13.9721 176.211 14.2856C175.774 15.1119 175.071 15.9668 174.919 16.8596H174.929Z" fill="white"/>
<path d="M244.155 13.9721C244.526 13.9341 244.792 13.6112 245.143 13.8487C245.381 14.0101 247.1 16.4892 246.986 16.6317C246.739 16.7361 246.226 17.0686 245.998 16.9261L244.155 13.9816V13.9721Z" fill="white"/>
<path d="M257.548 11.2082C257.548 11.2082 257.501 10.9138 257.377 10.8663L254.889 8.9666C255.098 8.75764 255.373 8.3967 255.696 8.49169C256.019 8.58667 258.384 10.3154 258.337 10.5623C258.318 10.6763 257.672 11.3032 257.539 11.2082H257.548Z" fill="white"/>
<path d="M236.433 13.9722C236.367 14.5326 235.065 17.0022 234.552 16.9452C234.486 16.9452 233.878 16.6697 233.84 16.6222L234.799 15.2735C234.951 15.017 235.445 13.8392 235.512 13.7917C235.607 13.7157 236.234 14.0292 236.442 13.9722H236.433Z" fill="white"/>
<path d="M174.244 4.40709C174.168 4.26462 174.558 3.65672 174.615 3.61873C174.909 3.44776 177.502 4.76803 177.588 5.05298C177.645 5.25244 177.189 5.92682 176.98 5.88883C176.894 5.86983 175.868 5.10047 175.602 4.958C175.194 4.73004 174.71 4.45458 174.254 4.39759L174.244 4.40709Z" fill="white"/>
<path d="M258.584 6.71531C257.919 6.98126 257.891 7.58916 257.378 6.71531L255.354 5.0531C255.601 4.91063 255.886 4.5022 256.162 4.57819C256.437 4.65417 258.271 6.14541 258.47 6.43036C258.537 6.52534 258.632 6.55384 258.584 6.71531Z" fill="white"/>
<path d="M176.895 8.90932C176.895 8.90932 176.543 9.5742 176.467 9.68818C176.41 9.76417 176.486 9.89715 176.277 9.82116C175.973 9.71668 175.175 9.13728 174.748 8.92832C174.378 8.74785 173.941 8.64337 173.58 8.4724C173.485 8.42491 173.371 8.49139 173.447 8.29193C173.513 8.12096 173.855 7.66504 174.045 7.66504C174.72 7.66504 176.201 8.67186 176.895 8.90932Z" fill="white"/>
<path d="M241.971 16.8498L241.04 14.0858C241.391 14.1238 241.733 13.8198 242.018 14.0858C242.151 14.2093 242.788 15.8905 242.835 16.1564C242.968 16.8688 242.56 16.7453 241.971 16.8498Z" fill="white"/>
<path d="M238.96 14.1051C239.064 14.1906 239.416 16.6507 239.311 16.7457C239.264 16.7837 238.352 17.0021 238.276 16.5747C238.143 15.8623 238.276 14.8555 238.048 14.0956C238.238 14.1336 238.874 14.0291 238.96 14.1051Z" fill="white"/>
<path d="M244.706 3.85655C244.925 3.79956 244.972 3.83755 245.143 3.94204C245.381 4.08451 246.748 5.62324 246.644 5.79421C246.492 5.8607 246.027 6.28812 245.884 6.20264C245.561 6.01267 244.706 4.49294 244.155 4.23648C244.155 4.19849 244.611 3.87555 244.706 3.85655Z" fill="white"/>
</g>
<defs>
<clipPath id="clip0_2858_106">
<rect width="339" height="71" fill="white"/>
</clipPath>
</defs>
</svg>
