<svg width="293" height="332" viewBox="0 0 293 332" fill="none" xmlns="http://www.w3.org/2000/svg">
<g filter="url(#filter0_d_2648_431)">
<path d="M22.4404 100.597C18.4303 100.597 15.1626 97.3404 15.1626 93.3296C15.1626 89.3188 18.4237 86.0625 22.4404 86.0625C26.4571 86.0625 29.7182 89.3188 29.7182 93.3296C29.7182 97.3404 26.4571 100.597 22.4404 100.597Z" fill="url(#paint0_linear_2648_431)"/>
<path d="M47.5489 114.806C43.7443 114.806 40.6489 111.716 40.6489 107.917C40.6489 104.118 43.7443 101.027 47.5489 101.027C51.3535 101.027 54.4489 104.118 54.4489 107.917C54.4489 111.716 51.3535 114.806 47.5489 114.806Z" fill="url(#paint1_linear_2648_431)"/>
<path d="M72.6496 129.016C69.0571 129.016 66.1274 126.098 66.1274 122.504C66.1274 118.91 69.0505 115.991 72.6496 115.991C76.2488 115.991 79.1718 118.91 79.1718 122.504C79.1718 126.098 76.2488 129.016 72.6496 129.016Z" fill="url(#paint2_linear_2648_431)"/>
<path d="M97.7577 143.226C94.3706 143.226 91.6133 140.473 91.6133 137.091C91.6133 133.709 94.3706 130.956 97.7577 130.956C101.145 130.956 103.902 133.709 103.902 137.091C103.902 140.473 101.145 143.226 97.7577 143.226Z" fill="url(#paint3_linear_2648_431)"/>
<path d="M122.865 157.442C119.69 157.442 117.099 154.861 117.099 151.684C117.099 148.507 119.684 145.926 122.865 145.926C126.047 145.926 128.632 148.507 128.632 151.684C128.632 154.861 126.047 157.442 122.865 157.442Z" fill="url(#paint4_linear_2648_431)"/>
<path d="M47.3701 86.3798C43.36 86.3798 40.0923 83.1236 40.0923 79.1128C40.0923 75.102 43.3534 71.8457 47.3701 71.8457C51.3868 71.8457 54.6479 75.102 54.6479 79.1128C54.6479 83.1236 51.3868 86.3798 47.3701 86.3798Z" fill="url(#paint5_linear_2648_431)"/>
<path d="M72.4772 100.597C68.6725 100.597 65.5771 97.5057 65.5771 93.7067C65.5771 89.9077 68.6725 86.8169 72.4772 86.8169C76.2818 86.8169 79.3772 89.9077 79.3772 93.7067C79.3772 97.5057 76.2818 100.597 72.4772 100.597Z" fill="url(#paint6_linear_2648_431)"/>
<path d="M97.5783 114.806C93.9858 114.806 91.0562 111.887 91.0562 108.293C91.0562 104.7 93.9792 101.781 97.5783 101.781C101.177 101.781 104.101 104.7 104.101 108.293C104.101 111.887 101.177 114.806 97.5783 114.806Z" fill="url(#paint7_linear_2648_431)"/>
<path d="M122.686 129.016C119.299 129.016 116.542 126.263 116.542 122.881C116.542 119.499 119.299 116.746 122.686 116.746C126.073 116.746 128.831 119.499 128.831 122.881C128.831 126.263 126.073 129.016 122.686 129.016Z" fill="url(#paint8_linear_2648_431)"/>
<path d="M147.794 143.226C144.619 143.226 142.027 140.644 142.027 137.468C142.027 134.291 144.612 131.709 147.794 131.709C150.975 131.709 153.561 134.291 153.561 137.468C153.561 140.644 150.975 143.226 147.794 143.226Z" fill="url(#paint9_linear_2648_431)"/>
<path d="M72.2983 72.1704C68.2882 72.1704 65.0205 68.9141 65.0205 64.9033C65.0205 60.8925 68.2816 57.6362 72.2983 57.6362C76.315 57.6362 79.5761 60.8925 79.5761 64.9033C79.5761 68.9141 76.315 72.1704 72.2983 72.1704Z" fill="url(#paint10_linear_2648_431)"/>
<path d="M97.3995 86.3802C93.5949 86.3802 90.4995 83.2894 90.4995 79.4904C90.4995 75.6914 93.5949 72.6006 97.3995 72.6006C101.204 72.6006 104.3 75.6914 104.3 79.4904C104.3 83.2894 101.204 86.3802 97.3995 86.3802Z" fill="url(#paint11_linear_2648_431)"/>
<path d="M122.508 100.596C118.915 100.596 115.985 97.6777 115.985 94.0839C115.985 90.49 118.908 87.5713 122.508 87.5713C126.107 87.5713 129.03 90.49 129.03 94.0839C129.03 97.6777 126.107 100.596 122.508 100.596Z" fill="url(#paint12_linear_2648_431)"/>
<path d="M147.615 114.806C144.228 114.806 141.471 112.053 141.471 108.67C141.471 105.288 144.228 102.535 147.615 102.535C151.002 102.535 153.759 105.288 153.759 108.67C153.759 112.053 151.002 114.806 147.615 114.806Z" fill="url(#paint13_linear_2648_431)"/>
<path d="M172.723 129.016C169.548 129.016 166.957 126.435 166.957 123.258C166.957 120.081 169.542 117.5 172.723 117.5C175.905 117.5 178.49 120.081 178.49 123.258C178.49 126.435 175.905 129.016 172.723 129.016Z" fill="url(#paint14_linear_2648_431)"/>
<path d="M97.227 57.9604C93.2169 57.9604 89.9492 54.7041 89.9492 50.6933C89.9492 46.6826 93.2103 43.4263 97.227 43.4263C101.244 43.4263 104.505 46.6826 104.505 50.6933C104.505 54.7041 101.244 57.9604 97.227 57.9604Z" fill="url(#paint15_linear_2648_431)"/>
<path d="M122.328 72.1703C118.523 72.1703 115.428 69.0794 115.428 65.2804C115.428 61.4814 118.523 58.3906 122.328 58.3906C126.132 58.3906 129.228 61.4814 129.228 65.2804C129.228 69.0794 126.132 72.1703 122.328 72.1703Z" fill="url(#paint16_linear_2648_431)"/>
<path d="M147.436 86.3796C143.844 86.3796 140.914 83.4609 140.914 79.8671C140.914 76.2732 143.837 73.3545 147.436 73.3545C151.035 73.3545 153.958 76.2732 153.958 79.8671C153.958 83.4609 151.035 86.3796 147.436 86.3796Z" fill="url(#paint17_linear_2648_431)"/>
<path d="M172.544 100.596C169.157 100.596 166.399 97.843 166.399 94.461C166.399 91.079 169.157 88.3257 172.544 88.3257C175.931 88.3257 178.688 91.079 178.688 94.461C178.688 97.843 175.931 100.596 172.544 100.596Z" fill="url(#paint18_linear_2648_431)"/>
<path d="M197.652 114.807C194.477 114.807 191.886 112.225 191.886 109.049C191.886 105.872 194.471 103.291 197.652 103.291C200.834 103.291 203.419 105.872 203.419 109.049C203.419 112.225 200.834 114.807 197.652 114.807Z" fill="url(#paint19_linear_2648_431)"/>
<path d="M122.156 43.7504C118.146 43.7504 114.878 40.4942 114.878 36.4834C114.878 32.4726 118.14 29.2163 122.156 29.2163C126.173 29.2163 129.434 32.4726 129.434 36.4834C129.434 40.4942 126.173 43.7504 122.156 43.7504Z" fill="url(#paint20_linear_2648_431)"/>
<path d="M147.257 57.9598C143.453 57.9598 140.357 54.869 140.357 51.07C140.357 47.271 143.453 44.1802 147.257 44.1802C151.062 44.1802 154.157 47.271 154.157 51.07C154.157 54.869 151.062 57.9598 147.257 57.9598Z" fill="url(#paint21_linear_2648_431)"/>
<path d="M172.364 72.1701C168.772 72.1701 165.842 69.2514 165.842 65.6576C165.842 62.0638 168.765 59.145 172.364 59.145C175.964 59.145 178.887 62.0638 178.887 65.6576C178.887 69.2514 175.964 72.1701 172.364 72.1701Z" fill="url(#paint22_linear_2648_431)"/>
<path d="M197.473 86.38C194.085 86.38 191.328 83.6267 191.328 80.2447C191.328 76.8627 194.085 74.1094 197.473 74.1094C200.86 74.1094 203.617 76.8627 203.617 80.2447C203.617 83.6267 200.86 86.38 197.473 86.38Z" fill="url(#paint23_linear_2648_431)"/>
<path d="M222.581 100.596C219.406 100.596 216.814 98.015 216.814 94.8381C216.814 91.6613 219.399 89.0801 222.581 89.0801C225.763 89.0801 228.348 91.6613 228.348 94.8381C228.348 98.015 225.763 100.596 222.581 100.596Z" fill="url(#paint24_linear_2648_431)"/>
<path d="M147.079 29.5341C143.069 29.5341 139.801 26.2779 139.801 22.2671C139.801 18.2563 143.062 15 147.079 15C151.095 15 154.356 18.2563 154.356 22.2671C154.356 26.2779 151.095 29.5341 147.079 29.5341Z" fill="url(#paint25_linear_2648_431)"/>
<path d="M172.187 43.7503C168.382 43.7503 165.287 40.6595 165.287 36.8605C165.287 33.0615 168.382 29.9707 172.187 29.9707C175.991 29.9707 179.087 33.0615 179.087 36.8605C179.087 40.6595 175.991 43.7503 172.187 43.7503Z" fill="url(#paint26_linear_2648_431)"/>
<path d="M197.294 57.9602C193.701 57.9602 190.771 55.0414 190.771 51.4476C190.771 47.8538 193.695 44.9351 197.294 44.9351C200.893 44.9351 203.816 47.8538 203.816 51.4476C203.816 55.0414 200.893 57.9602 197.294 57.9602Z" fill="url(#paint27_linear_2648_431)"/>
<path d="M222.401 72.1705C219.014 72.1705 216.257 69.4172 216.257 66.0352C216.257 62.6532 219.014 59.8999 222.401 59.8999C225.788 59.8999 228.546 62.6532 228.546 66.0352C228.546 69.4172 225.788 72.1705 222.401 72.1705Z" fill="url(#paint28_linear_2648_431)"/>
<path d="M247.509 86.3799C244.334 86.3799 241.742 83.7987 241.742 80.6218C241.742 77.445 244.327 74.8638 247.509 74.8638C250.69 74.8638 253.275 77.445 253.275 80.6218C253.275 83.7987 250.69 86.3799 247.509 86.3799Z" fill="url(#paint29_linear_2648_431)"/>
<path d="M147.972 171.652C145.003 171.652 142.59 169.236 142.59 166.278C142.59 163.319 145.003 160.897 147.972 160.897C150.942 160.897 153.355 163.313 153.355 166.278C153.355 169.243 150.942 171.652 147.972 171.652Z" fill="url(#paint30_linear_2648_431)"/>
<path d="M172.902 157.442C169.932 157.442 167.52 155.026 167.52 152.068C167.52 149.109 169.932 146.687 172.902 146.687C175.871 146.687 178.284 149.103 178.284 152.068C178.284 155.033 175.871 157.442 172.902 157.442Z" fill="url(#paint31_linear_2648_431)"/>
<path d="M197.83 143.226C194.861 143.226 192.448 140.81 192.448 137.845C192.448 134.88 194.861 132.471 197.83 132.471C200.8 132.471 203.219 134.887 203.219 137.845C203.219 140.804 200.8 143.226 197.83 143.226Z" fill="url(#paint32_linear_2648_431)"/>
<path d="M222.759 129.016C219.79 129.016 217.377 126.6 217.377 123.635C217.377 120.67 219.79 118.261 222.759 118.261C225.729 118.261 228.148 120.677 228.148 123.635C228.148 126.594 225.729 129.016 222.759 129.016Z" fill="url(#paint33_linear_2648_431)"/>
<path d="M247.688 114.806C244.718 114.806 242.299 112.391 242.299 109.425C242.299 106.46 244.718 104.051 247.688 104.051C250.657 104.051 253.07 106.467 253.07 109.425C253.07 112.384 250.657 114.806 247.688 114.806Z" fill="url(#paint34_linear_2648_431)"/>
<path d="M272.618 100.596C269.649 100.596 267.229 98.1806 267.229 95.2155C267.229 92.2504 269.649 89.8413 272.618 89.8413C275.588 89.8413 278 92.257 278 95.2155C278 98.174 275.588 100.596 272.618 100.596Z" fill="url(#paint35_linear_2648_431)"/>
<path d="M147.973 207.941C150.949 207.941 153.362 205.532 153.362 202.56C153.362 199.589 150.949 197.18 147.973 197.18C144.997 197.18 142.584 199.589 142.584 202.56C142.584 205.532 144.997 207.941 147.973 207.941Z" fill="url(#paint36_linear_2648_431)"/>
<path d="M172.902 193.725C175.878 193.725 178.291 191.315 178.291 188.344C178.291 185.372 175.878 182.963 172.902 182.963C169.926 182.963 167.513 185.372 167.513 188.344C167.513 191.315 169.926 193.725 172.902 193.725Z" fill="url(#paint37_linear_2648_431)"/>
<path d="M197.83 179.515C194.861 179.515 192.448 177.099 192.448 174.141C192.448 171.182 194.861 168.76 197.83 168.76C200.8 168.76 203.219 171.176 203.219 174.141C203.219 177.106 200.8 179.515 197.83 179.515Z" fill="url(#paint38_linear_2648_431)"/>
<path d="M222.759 165.298C219.79 165.298 217.377 162.882 217.377 159.924C217.377 156.965 219.79 154.543 222.759 154.543C225.729 154.543 228.148 156.959 228.148 159.924C228.148 162.889 225.729 165.298 222.759 165.298Z" fill="url(#paint39_linear_2648_431)"/>
<path d="M247.688 151.088C244.718 151.088 242.299 148.672 242.299 145.714C242.299 142.755 244.718 140.333 247.688 140.333C250.657 140.333 253.07 142.749 253.07 145.714C253.07 148.679 250.657 151.088 247.688 151.088Z" fill="url(#paint40_linear_2648_431)"/>
<path d="M272.618 136.879C269.649 136.879 267.229 134.463 267.229 131.504C267.229 128.546 269.649 126.124 272.618 126.124C275.588 126.124 278 128.539 278 131.504C278 134.469 275.588 136.879 272.618 136.879Z" fill="url(#paint41_linear_2648_431)"/>
<path d="M147.972 244.217C145.003 244.217 142.59 241.801 142.59 238.836C142.59 235.871 145.003 233.462 147.972 233.462C150.942 233.462 153.355 235.878 153.355 238.836C153.355 241.795 150.942 244.217 147.972 244.217Z" fill="url(#paint42_linear_2648_431)"/>
<path d="M172.902 230.007C169.932 230.007 167.52 227.592 167.52 224.627C167.52 221.662 169.932 219.252 172.902 219.252C175.871 219.252 178.284 221.668 178.284 224.627C178.284 227.585 175.871 230.007 172.902 230.007Z" fill="url(#paint43_linear_2648_431)"/>
<path d="M197.83 215.797C194.861 215.797 192.448 213.382 192.448 210.417C192.448 207.452 194.861 205.042 197.83 205.042C200.8 205.042 203.219 207.458 203.219 210.417C203.219 213.375 200.8 215.797 197.83 215.797Z" fill="url(#paint44_linear_2648_431)"/>
<path d="M222.759 201.581C219.79 201.581 217.377 199.165 217.377 196.2C217.377 193.235 219.79 190.826 222.759 190.826C225.729 190.826 228.148 193.241 228.148 196.2C228.148 199.158 225.729 201.581 222.759 201.581Z" fill="url(#paint45_linear_2648_431)"/>
<path d="M247.688 187.371C244.718 187.371 242.299 184.955 242.299 181.99C242.299 179.025 244.718 176.609 247.688 176.609C250.657 176.609 253.07 179.025 253.07 181.99C253.07 184.955 250.657 187.371 247.688 187.371Z" fill="url(#paint46_linear_2648_431)"/>
<path d="M272.618 173.161C269.649 173.161 267.229 170.745 267.229 167.78C267.229 164.815 269.649 162.399 272.618 162.399C275.588 162.399 278 164.815 278 167.78C278 170.745 275.588 173.161 272.618 173.161Z" fill="url(#paint47_linear_2648_431)"/>
<path d="M147.972 280.5C145.003 280.5 142.59 278.084 142.59 275.119C142.59 272.154 145.003 269.745 147.972 269.745C150.942 269.745 153.355 272.154 153.355 275.119C153.355 278.084 150.942 280.5 147.972 280.5Z" fill="url(#paint48_linear_2648_431)"/>
<path d="M172.902 266.29C169.932 266.29 167.52 263.874 167.52 260.909C167.52 257.944 169.932 255.535 172.902 255.535C175.871 255.535 178.284 257.944 178.284 260.909C178.284 263.874 175.871 266.29 172.902 266.29Z" fill="url(#paint49_linear_2648_431)"/>
<path d="M197.83 252.079C194.861 252.079 192.448 249.663 192.448 246.698C192.448 243.733 194.861 241.317 197.83 241.317C200.8 241.317 203.219 243.733 203.219 246.698C203.219 249.663 200.8 252.079 197.83 252.079Z" fill="url(#paint50_linear_2648_431)"/>
<path d="M222.759 237.87C219.79 237.87 217.377 235.454 217.377 232.496C217.377 229.537 219.79 227.115 222.759 227.115C225.729 227.115 228.148 229.53 228.148 232.496C228.148 235.461 225.729 237.87 222.759 237.87Z" fill="url(#paint51_linear_2648_431)"/>
<path d="M247.688 223.653C244.718 223.653 242.299 221.238 242.299 218.273C242.299 215.308 244.718 212.898 247.688 212.898C250.657 212.898 253.07 215.314 253.07 218.273C253.07 221.231 250.657 223.653 247.688 223.653Z" fill="url(#paint52_linear_2648_431)"/>
<path d="M272.618 209.443C269.649 209.443 267.229 207.028 267.229 204.063C267.229 201.098 269.649 198.688 272.618 198.688C275.588 198.688 278 201.104 278 204.063C278 207.021 275.588 209.443 272.618 209.443Z" fill="url(#paint53_linear_2648_431)"/>
<path d="M147.972 316.782C150.945 316.782 153.355 314.375 153.355 311.407C153.355 308.439 150.945 306.033 147.972 306.033C145 306.033 142.59 308.439 142.59 311.407C142.59 314.375 145 316.782 147.972 316.782Z" fill="url(#paint54_linear_2648_431)"/>
<path d="M122.866 302.274C125.769 302.274 128.122 299.924 128.122 297.026C128.122 294.127 125.769 291.777 122.866 291.777C119.963 291.777 117.609 294.127 117.609 297.026C117.609 299.924 119.963 302.274 122.866 302.274Z" fill="url(#paint55_linear_2648_431)"/>
<path d="M97.7574 287.76C94.9338 287.76 92.6338 285.463 92.6338 282.644C92.6338 279.824 94.9338 277.528 97.7574 277.528C100.581 277.528 102.881 279.824 102.881 282.644C102.881 285.463 100.581 287.76 97.7574 287.76Z" fill="url(#paint56_linear_2648_431)"/>
<path d="M72.6498 273.245C69.899 273.245 67.6587 271.008 67.6587 268.262C67.6587 265.515 69.899 263.278 72.6498 263.278C75.4005 263.278 77.6408 265.515 77.6408 268.262C77.6408 271.008 75.4005 273.245 72.6498 273.245Z" fill="url(#paint57_linear_2648_431)"/>
<path d="M47.5484 258.731C44.8706 258.731 42.6899 256.554 42.6899 253.88C42.6899 251.206 44.8706 249.028 47.5484 249.028C50.2263 249.028 52.407 251.206 52.407 253.88C52.407 256.554 50.2263 258.731 47.5484 258.731Z" fill="url(#paint58_linear_2648_431)"/>
<path d="M22.4408 244.217C25.0508 244.217 27.1667 242.104 27.1667 239.498C27.1667 236.892 25.0508 234.779 22.4408 234.779C19.8307 234.779 17.7148 236.892 17.7148 239.498C17.7148 242.104 19.8307 244.217 22.4408 244.217Z" fill="url(#paint59_linear_2648_431)"/>
<path d="M122.885 266.012C125.788 266.012 128.141 263.662 128.141 260.763C128.141 257.864 125.788 255.515 122.885 255.515C119.982 255.515 117.629 257.864 117.629 260.763C117.629 263.662 119.982 266.012 122.885 266.012Z" fill="url(#paint60_linear_2648_431)"/>
<path d="M97.7779 251.497C100.608 251.497 102.902 249.207 102.902 246.381C102.902 243.556 100.608 241.265 97.7779 241.265C94.9482 241.265 92.6543 243.556 92.6543 246.381C92.6543 249.207 94.9482 251.497 97.7779 251.497Z" fill="url(#paint61_linear_2648_431)"/>
<path d="M72.6766 236.983C69.9259 236.983 67.6855 234.745 67.6855 231.999C67.6855 229.252 69.9259 227.015 72.6766 227.015C75.4273 227.015 77.6677 229.252 77.6677 231.999C77.6677 234.745 75.4273 236.983 72.6766 236.983Z" fill="url(#paint62_linear_2648_431)"/>
<path d="M47.5685 222.469C50.2517 222.469 52.427 220.297 52.427 217.617C52.427 214.938 50.2517 212.766 47.5685 212.766C44.8852 212.766 42.71 214.938 42.71 217.617C42.71 220.297 44.8852 222.469 47.5685 222.469Z" fill="url(#paint63_linear_2648_431)"/>
<path d="M22.4608 207.955C25.0709 207.955 27.1867 205.842 27.1867 203.236C27.1867 200.629 25.0709 198.517 22.4608 198.517C19.8507 198.517 17.7349 200.629 17.7349 203.236C17.7349 205.842 19.8507 207.955 22.4608 207.955Z" fill="url(#paint64_linear_2648_431)"/>
<path d="M122.866 229.709C125.769 229.709 128.122 227.359 128.122 224.461C128.122 221.562 125.769 219.212 122.866 219.212C119.963 219.212 117.609 221.562 117.609 224.461C117.609 227.359 119.963 229.709 122.866 229.709Z" fill="url(#paint65_linear_2648_431)"/>
<path d="M97.7574 215.195C94.9338 215.195 92.6338 212.898 92.6338 210.079C92.6338 207.259 94.9338 204.963 97.7574 204.963C100.581 204.963 102.881 207.259 102.881 210.079C102.881 212.898 100.581 215.195 97.7574 215.195Z" fill="url(#paint66_linear_2648_431)"/>
<path d="M72.6498 200.681C69.899 200.681 67.6587 198.444 67.6587 195.697C67.6587 192.95 69.899 190.713 72.6498 190.713C75.4005 190.713 77.6408 192.95 77.6408 195.697C77.6408 198.444 75.4005 200.681 72.6498 200.681Z" fill="url(#paint67_linear_2648_431)"/>
<path d="M47.5484 186.167C44.8706 186.167 42.6899 183.989 42.6899 181.315C42.6899 178.641 44.8706 176.464 47.5484 176.464C50.2263 176.464 52.407 178.641 52.407 181.315C52.407 183.989 50.2263 186.167 47.5484 186.167Z" fill="url(#paint68_linear_2648_431)"/>
<path d="M22.4408 171.652C25.0508 171.652 27.1667 169.54 27.1667 166.933C27.1667 164.327 25.0508 162.214 22.4408 162.214C19.8307 162.214 17.7148 164.327 17.7148 166.933C17.7148 169.54 19.8307 171.652 22.4408 171.652Z" fill="url(#paint69_linear_2648_431)"/>
<path d="M122.866 193.427C125.769 193.427 128.122 191.077 128.122 188.178C128.122 185.279 125.769 182.93 122.866 182.93C119.963 182.93 117.609 185.279 117.609 188.178C117.609 191.077 119.963 193.427 122.866 193.427Z" fill="url(#paint70_linear_2648_431)"/>
<path d="M97.7574 178.905C94.9338 178.905 92.6338 176.609 92.6338 173.789C92.6338 170.97 94.9338 168.673 97.7574 168.673C100.581 168.673 102.881 170.97 102.881 173.789C102.881 176.609 100.581 178.905 97.7574 178.905Z" fill="url(#paint71_linear_2648_431)"/>
<path d="M72.6498 164.399C69.899 164.399 67.6587 162.162 67.6587 159.415C67.6587 156.668 69.899 154.431 72.6498 154.431C75.4005 154.431 77.6408 156.668 77.6408 159.415C77.6408 162.162 75.4005 164.399 72.6498 164.399Z" fill="url(#paint72_linear_2648_431)"/>
<path d="M47.5484 149.884C44.8706 149.884 42.6899 147.706 42.6899 145.032C42.6899 142.359 44.8706 140.181 47.5484 140.181C50.2263 140.181 52.407 142.359 52.407 145.032C52.407 147.706 50.2263 149.884 47.5484 149.884Z" fill="url(#paint73_linear_2648_431)"/>
<path d="M22.4408 135.37C25.0508 135.37 27.1667 133.257 27.1667 130.651C27.1667 128.044 25.0508 125.932 22.4408 125.932C19.8307 125.932 17.7148 128.044 17.7148 130.651C17.7148 133.257 19.8307 135.37 22.4408 135.37Z" fill="url(#paint74_linear_2648_431)"/>
<path d="M172.902 302.572C175.874 302.572 178.284 300.166 178.284 297.197C178.284 294.229 175.874 291.823 172.902 291.823C169.929 291.823 167.52 294.229 167.52 297.197C167.52 300.166 169.929 302.572 172.902 302.572Z" fill="url(#paint75_linear_2648_431)"/>
<path d="M197.83 288.362C194.861 288.362 192.448 285.953 192.448 282.987C192.448 280.022 194.861 277.613 197.83 277.613C200.8 277.613 203.219 280.022 203.219 282.987C203.219 285.953 200.8 288.362 197.83 288.362Z" fill="url(#paint76_linear_2648_431)"/>
<path d="M222.759 274.153C219.79 274.153 217.377 271.744 217.377 268.778C217.377 265.813 219.79 263.404 222.759 263.404C225.729 263.404 228.148 265.813 228.148 268.778C228.148 271.744 225.729 274.153 222.759 274.153Z" fill="url(#paint77_linear_2648_431)"/>
<path d="M247.688 259.936C244.718 259.936 242.299 257.527 242.299 254.561C242.299 251.596 244.718 249.181 247.688 249.181C250.657 249.181 253.07 251.596 253.07 254.561C253.07 257.527 250.657 259.936 247.688 259.936Z" fill="url(#paint78_linear_2648_431)"/>
<path d="M272.618 245.726C269.649 245.726 267.229 243.31 267.229 240.352C267.229 237.393 269.649 234.971 272.618 234.971C275.588 234.971 278 237.386 278 240.352C278 243.317 275.588 245.726 272.618 245.726Z" fill="url(#paint79_linear_2648_431)"/>
</g>
<defs>
<filter id="filter0_d_2648_431" x="0.162598" y="0" width="292.837" height="331.782" filterUnits="userSpaceOnUse" color-interpolation-filters="sRGB">
<feFlood flood-opacity="0" result="BackgroundImageFix"/>
<feColorMatrix in="SourceAlpha" type="matrix" values="0 0 0 0 0 0 0 0 0 0 0 0 0 0 0 0 0 0 127 0" result="hardAlpha"/>
<feOffset/>
<feGaussianBlur stdDeviation="7.5"/>
<feComposite in2="hardAlpha" operator="out"/>
<feColorMatrix type="matrix" values="0 0 0 0 0.00392157 0 0 0 0 0.74902 0 0 0 0 1 0 0 0 0.8 0"/>
<feBlend mode="normal" in2="BackgroundImageFix" result="effect1_dropShadow_2648_431"/>
<feBlend mode="normal" in="SourceGraphic" in2="effect1_dropShadow_2648_431" result="shape"/>
</filter>
<linearGradient id="paint0_linear_2648_431" x1="274.102" y1="238.717" x2="18.1954" y2="90.7519" gradientUnits="userSpaceOnUse">
<stop stop-color="#4253D1"/>
<stop offset="0.49" stop-color="#4893ED"/>
<stop offset="1" stop-color="#14ED99"/>
</linearGradient>
<linearGradient id="paint1_linear_2648_431" x1="274.102" y1="238.717" x2="18.1962" y2="90.7517" gradientUnits="userSpaceOnUse">
<stop stop-color="#4253D1"/>
<stop offset="0.49" stop-color="#4893ED"/>
<stop offset="1" stop-color="#14ED99"/>
</linearGradient>
<linearGradient id="paint2_linear_2648_431" x1="274.102" y1="238.717" x2="18.1958" y2="90.7518" gradientUnits="userSpaceOnUse">
<stop stop-color="#4253D1"/>
<stop offset="0.49" stop-color="#4893ED"/>
<stop offset="1" stop-color="#14ED99"/>
</linearGradient>
<linearGradient id="paint3_linear_2648_431" x1="274.102" y1="238.717" x2="18.196" y2="90.7517" gradientUnits="userSpaceOnUse">
<stop stop-color="#4253D1"/>
<stop offset="0.49" stop-color="#4893ED"/>
<stop offset="1" stop-color="#14ED99"/>
</linearGradient>
<linearGradient id="paint4_linear_2648_431" x1="274.102" y1="238.717" x2="18.1956" y2="90.7511" gradientUnits="userSpaceOnUse">
<stop stop-color="#4253D1"/>
<stop offset="0.49" stop-color="#4893ED"/>
<stop offset="1" stop-color="#14ED99"/>
</linearGradient>
<linearGradient id="paint5_linear_2648_431" x1="274.103" y1="238.717" x2="18.1963" y2="90.7514" gradientUnits="userSpaceOnUse">
<stop stop-color="#4253D1"/>
<stop offset="0.49" stop-color="#4893ED"/>
<stop offset="1" stop-color="#14ED99"/>
</linearGradient>
<linearGradient id="paint6_linear_2648_431" x1="274.102" y1="238.717" x2="18.1955" y2="90.7517" gradientUnits="userSpaceOnUse">
<stop stop-color="#4253D1"/>
<stop offset="0.49" stop-color="#4893ED"/>
<stop offset="1" stop-color="#14ED99"/>
</linearGradient>
<linearGradient id="paint7_linear_2648_431" x1="274.102" y1="238.717" x2="18.1956" y2="90.7512" gradientUnits="userSpaceOnUse">
<stop stop-color="#4253D1"/>
<stop offset="0.49" stop-color="#4893ED"/>
<stop offset="1" stop-color="#14ED99"/>
</linearGradient>
<linearGradient id="paint8_linear_2648_431" x1="274.102" y1="238.717" x2="18.1959" y2="90.7515" gradientUnits="userSpaceOnUse">
<stop stop-color="#4253D1"/>
<stop offset="0.49" stop-color="#4893ED"/>
<stop offset="1" stop-color="#14ED99"/>
</linearGradient>
<linearGradient id="paint9_linear_2648_431" x1="274.102" y1="238.717" x2="18.1956" y2="90.7511" gradientUnits="userSpaceOnUse">
<stop stop-color="#4253D1"/>
<stop offset="0.49" stop-color="#4893ED"/>
<stop offset="1" stop-color="#14ED99"/>
</linearGradient>
<linearGradient id="paint10_linear_2648_431" x1="274.102" y1="238.717" x2="18.1957" y2="90.7518" gradientUnits="userSpaceOnUse">
<stop stop-color="#4253D1"/>
<stop offset="0.49" stop-color="#4893ED"/>
<stop offset="1" stop-color="#14ED99"/>
</linearGradient>
<linearGradient id="paint11_linear_2648_431" x1="274.102" y1="238.717" x2="18.1957" y2="90.7519" gradientUnits="userSpaceOnUse">
<stop stop-color="#4253D1"/>
<stop offset="0.49" stop-color="#4893ED"/>
<stop offset="1" stop-color="#14ED99"/>
</linearGradient>
<linearGradient id="paint12_linear_2648_431" x1="274.102" y1="238.717" x2="18.1959" y2="90.7518" gradientUnits="userSpaceOnUse">
<stop stop-color="#4253D1"/>
<stop offset="0.49" stop-color="#4893ED"/>
<stop offset="1" stop-color="#14ED99"/>
</linearGradient>
<linearGradient id="paint13_linear_2648_431" x1="274.102" y1="238.717" x2="18.1957" y2="90.7509" gradientUnits="userSpaceOnUse">
<stop stop-color="#4253D1"/>
<stop offset="0.49" stop-color="#4893ED"/>
<stop offset="1" stop-color="#14ED99"/>
</linearGradient>
<linearGradient id="paint14_linear_2648_431" x1="274.102" y1="238.717" x2="18.196" y2="90.7514" gradientUnits="userSpaceOnUse">
<stop stop-color="#4253D1"/>
<stop offset="0.49" stop-color="#4893ED"/>
<stop offset="1" stop-color="#14ED99"/>
</linearGradient>
<linearGradient id="paint15_linear_2648_431" x1="274.102" y1="238.717" x2="18.1955" y2="90.7518" gradientUnits="userSpaceOnUse">
<stop stop-color="#4253D1"/>
<stop offset="0.49" stop-color="#4893ED"/>
<stop offset="1" stop-color="#14ED99"/>
</linearGradient>
<linearGradient id="paint16_linear_2648_431" x1="274.101" y1="238.717" x2="18.1951" y2="90.7518" gradientUnits="userSpaceOnUse">
<stop stop-color="#4253D1"/>
<stop offset="0.49" stop-color="#4893ED"/>
<stop offset="1" stop-color="#14ED99"/>
</linearGradient>
<linearGradient id="paint17_linear_2648_431" x1="274.102" y1="238.717" x2="18.1959" y2="90.7512" gradientUnits="userSpaceOnUse">
<stop stop-color="#4253D1"/>
<stop offset="0.49" stop-color="#4893ED"/>
<stop offset="1" stop-color="#14ED99"/>
</linearGradient>
<linearGradient id="paint18_linear_2648_431" x1="274.102" y1="238.717" x2="18.1955" y2="90.7514" gradientUnits="userSpaceOnUse">
<stop stop-color="#4253D1"/>
<stop offset="0.49" stop-color="#4893ED"/>
<stop offset="1" stop-color="#14ED99"/>
</linearGradient>
<linearGradient id="paint19_linear_2648_431" x1="274.103" y1="238.717" x2="18.1963" y2="90.752" gradientUnits="userSpaceOnUse">
<stop stop-color="#4253D1"/>
<stop offset="0.49" stop-color="#4893ED"/>
<stop offset="1" stop-color="#14ED99"/>
</linearGradient>
<linearGradient id="paint20_linear_2648_431" x1="274.102" y1="238.717" x2="18.1959" y2="90.7517" gradientUnits="userSpaceOnUse">
<stop stop-color="#4253D1"/>
<stop offset="0.49" stop-color="#4893ED"/>
<stop offset="1" stop-color="#14ED99"/>
</linearGradient>
<linearGradient id="paint21_linear_2648_431" x1="274.102" y1="238.717" x2="18.196" y2="90.7512" gradientUnits="userSpaceOnUse">
<stop stop-color="#4253D1"/>
<stop offset="0.49" stop-color="#4893ED"/>
<stop offset="1" stop-color="#14ED99"/>
</linearGradient>
<linearGradient id="paint22_linear_2648_431" x1="274.101" y1="238.717" x2="18.1952" y2="90.7517" gradientUnits="userSpaceOnUse">
<stop stop-color="#4253D1"/>
<stop offset="0.49" stop-color="#4893ED"/>
<stop offset="1" stop-color="#14ED99"/>
</linearGradient>
<linearGradient id="paint23_linear_2648_431" x1="274.102" y1="238.717" x2="18.1955" y2="90.7514" gradientUnits="userSpaceOnUse">
<stop stop-color="#4253D1"/>
<stop offset="0.49" stop-color="#4893ED"/>
<stop offset="1" stop-color="#14ED99"/>
</linearGradient>
<linearGradient id="paint24_linear_2648_431" x1="274.102" y1="238.717" x2="18.1961" y2="90.7515" gradientUnits="userSpaceOnUse">
<stop stop-color="#4253D1"/>
<stop offset="0.49" stop-color="#4893ED"/>
<stop offset="1" stop-color="#14ED99"/>
</linearGradient>
<linearGradient id="paint25_linear_2648_431" x1="274.102" y1="238.717" x2="18.1961" y2="90.7517" gradientUnits="userSpaceOnUse">
<stop stop-color="#4253D1"/>
<stop offset="0.49" stop-color="#4893ED"/>
<stop offset="1" stop-color="#14ED99"/>
</linearGradient>
<linearGradient id="paint26_linear_2648_431" x1="274.103" y1="238.717" x2="18.1963" y2="90.7515" gradientUnits="userSpaceOnUse">
<stop stop-color="#4253D1"/>
<stop offset="0.49" stop-color="#4893ED"/>
<stop offset="1" stop-color="#14ED99"/>
</linearGradient>
<linearGradient id="paint27_linear_2648_431" x1="274.102" y1="238.717" x2="18.1956" y2="90.7515" gradientUnits="userSpaceOnUse">
<stop stop-color="#4253D1"/>
<stop offset="0.49" stop-color="#4893ED"/>
<stop offset="1" stop-color="#14ED99"/>
</linearGradient>
<linearGradient id="paint28_linear_2648_431" x1="274.101" y1="238.717" x2="18.1954" y2="90.7522" gradientUnits="userSpaceOnUse">
<stop stop-color="#4253D1"/>
<stop offset="0.49" stop-color="#4893ED"/>
<stop offset="1" stop-color="#14ED99"/>
</linearGradient>
<linearGradient id="paint29_linear_2648_431" x1="274.101" y1="238.717" x2="18.1951" y2="90.7515" gradientUnits="userSpaceOnUse">
<stop stop-color="#4253D1"/>
<stop offset="0.49" stop-color="#4893ED"/>
<stop offset="1" stop-color="#14ED99"/>
</linearGradient>
<linearGradient id="paint30_linear_2648_431" x1="274.101" y1="238.717" x2="18.1952" y2="90.7512" gradientUnits="userSpaceOnUse">
<stop stop-color="#4253D1"/>
<stop offset="0.49" stop-color="#4893ED"/>
<stop offset="1" stop-color="#14ED99"/>
</linearGradient>
<linearGradient id="paint31_linear_2648_431" x1="274.102" y1="238.717" x2="18.1955" y2="90.7511" gradientUnits="userSpaceOnUse">
<stop stop-color="#4253D1"/>
<stop offset="0.49" stop-color="#4893ED"/>
<stop offset="1" stop-color="#14ED99"/>
</linearGradient>
<linearGradient id="paint32_linear_2648_431" x1="274.102" y1="238.717" x2="18.1954" y2="90.7518" gradientUnits="userSpaceOnUse">
<stop stop-color="#4253D1"/>
<stop offset="0.49" stop-color="#4893ED"/>
<stop offset="1" stop-color="#14ED99"/>
</linearGradient>
<linearGradient id="paint33_linear_2648_431" x1="274.102" y1="238.717" x2="18.1953" y2="90.7517" gradientUnits="userSpaceOnUse">
<stop stop-color="#4253D1"/>
<stop offset="0.49" stop-color="#4893ED"/>
<stop offset="1" stop-color="#14ED99"/>
</linearGradient>
<linearGradient id="paint34_linear_2648_431" x1="274.101" y1="238.717" x2="18.1949" y2="90.7516" gradientUnits="userSpaceOnUse">
<stop stop-color="#4253D1"/>
<stop offset="0.49" stop-color="#4893ED"/>
<stop offset="1" stop-color="#14ED99"/>
</linearGradient>
<linearGradient id="paint35_linear_2648_431" x1="274.103" y1="238.717" x2="18.1967" y2="90.7515" gradientUnits="userSpaceOnUse">
<stop stop-color="#4253D1"/>
<stop offset="0.49" stop-color="#4893ED"/>
<stop offset="1" stop-color="#14ED99"/>
</linearGradient>
<linearGradient id="paint36_linear_2648_431" x1="274.102" y1="238.717" x2="18.1958" y2="90.7518" gradientUnits="userSpaceOnUse">
<stop stop-color="#4253D1"/>
<stop offset="0.49" stop-color="#4893ED"/>
<stop offset="1" stop-color="#14ED99"/>
</linearGradient>
<linearGradient id="paint37_linear_2648_431" x1="274.102" y1="238.717" x2="18.1958" y2="90.7513" gradientUnits="userSpaceOnUse">
<stop stop-color="#4253D1"/>
<stop offset="0.49" stop-color="#4893ED"/>
<stop offset="1" stop-color="#14ED99"/>
</linearGradient>
<linearGradient id="paint38_linear_2648_431" x1="274.102" y1="238.717" x2="18.1954" y2="90.7514" gradientUnits="userSpaceOnUse">
<stop stop-color="#4253D1"/>
<stop offset="0.49" stop-color="#4893ED"/>
<stop offset="1" stop-color="#14ED99"/>
</linearGradient>
<linearGradient id="paint39_linear_2648_431" x1="274.102" y1="238.717" x2="18.1953" y2="90.751" gradientUnits="userSpaceOnUse">
<stop stop-color="#4253D1"/>
<stop offset="0.49" stop-color="#4893ED"/>
<stop offset="1" stop-color="#14ED99"/>
</linearGradient>
<linearGradient id="paint40_linear_2648_431" x1="274.101" y1="238.716" x2="18.1949" y2="90.7509" gradientUnits="userSpaceOnUse">
<stop stop-color="#4253D1"/>
<stop offset="0.49" stop-color="#4893ED"/>
<stop offset="1" stop-color="#14ED99"/>
</linearGradient>
<linearGradient id="paint41_linear_2648_431" x1="274.103" y1="238.717" x2="18.1967" y2="90.7513" gradientUnits="userSpaceOnUse">
<stop stop-color="#4253D1"/>
<stop offset="0.49" stop-color="#4893ED"/>
<stop offset="1" stop-color="#14ED99"/>
</linearGradient>
<linearGradient id="paint42_linear_2648_431" x1="274.101" y1="238.717" x2="18.1952" y2="90.7514" gradientUnits="userSpaceOnUse">
<stop stop-color="#4253D1"/>
<stop offset="0.49" stop-color="#4893ED"/>
<stop offset="1" stop-color="#14ED99"/>
</linearGradient>
<linearGradient id="paint43_linear_2648_431" x1="274.102" y1="238.717" x2="18.1955" y2="90.7517" gradientUnits="userSpaceOnUse">
<stop stop-color="#4253D1"/>
<stop offset="0.49" stop-color="#4893ED"/>
<stop offset="1" stop-color="#14ED99"/>
</linearGradient>
<linearGradient id="paint44_linear_2648_431" x1="274.102" y1="238.717" x2="18.1954" y2="90.7517" gradientUnits="userSpaceOnUse">
<stop stop-color="#4253D1"/>
<stop offset="0.49" stop-color="#4893ED"/>
<stop offset="1" stop-color="#14ED99"/>
</linearGradient>
<linearGradient id="paint45_linear_2648_431" x1="274.101" y1="238.717" x2="18.1953" y2="90.7514" gradientUnits="userSpaceOnUse">
<stop stop-color="#4253D1"/>
<stop offset="0.49" stop-color="#4893ED"/>
<stop offset="1" stop-color="#14ED99"/>
</linearGradient>
<linearGradient id="paint46_linear_2648_431" x1="274.101" y1="238.717" x2="18.1949" y2="90.7515" gradientUnits="userSpaceOnUse">
<stop stop-color="#4253D1"/>
<stop offset="0.49" stop-color="#4893ED"/>
<stop offset="1" stop-color="#14ED99"/>
</linearGradient>
<linearGradient id="paint47_linear_2648_431" x1="274.103" y1="238.717" x2="18.1966" y2="90.7515" gradientUnits="userSpaceOnUse">
<stop stop-color="#4253D1"/>
<stop offset="0.49" stop-color="#4893ED"/>
<stop offset="1" stop-color="#14ED99"/>
</linearGradient>
<linearGradient id="paint48_linear_2648_431" x1="274.101" y1="238.717" x2="18.1952" y2="90.7517" gradientUnits="userSpaceOnUse">
<stop stop-color="#4253D1"/>
<stop offset="0.49" stop-color="#4893ED"/>
<stop offset="1" stop-color="#14ED99"/>
</linearGradient>
<linearGradient id="paint49_linear_2648_431" x1="274.102" y1="238.717" x2="18.1955" y2="90.7516" gradientUnits="userSpaceOnUse">
<stop stop-color="#4253D1"/>
<stop offset="0.49" stop-color="#4893ED"/>
<stop offset="1" stop-color="#14ED99"/>
</linearGradient>
<linearGradient id="paint50_linear_2648_431" x1="274.102" y1="238.716" x2="18.1953" y2="90.7509" gradientUnits="userSpaceOnUse">
<stop stop-color="#4253D1"/>
<stop offset="0.49" stop-color="#4893ED"/>
<stop offset="1" stop-color="#14ED99"/>
</linearGradient>
<linearGradient id="paint51_linear_2648_431" x1="274.102" y1="238.717" x2="18.1953" y2="90.7514" gradientUnits="userSpaceOnUse">
<stop stop-color="#4253D1"/>
<stop offset="0.49" stop-color="#4893ED"/>
<stop offset="1" stop-color="#14ED99"/>
</linearGradient>
<linearGradient id="paint52_linear_2648_431" x1="274.101" y1="238.717" x2="18.1949" y2="90.7515" gradientUnits="userSpaceOnUse">
<stop stop-color="#4253D1"/>
<stop offset="0.49" stop-color="#4893ED"/>
<stop offset="1" stop-color="#14ED99"/>
</linearGradient>
<linearGradient id="paint53_linear_2648_431" x1="274.103" y1="238.717" x2="18.1967" y2="90.7514" gradientUnits="userSpaceOnUse">
<stop stop-color="#4253D1"/>
<stop offset="0.49" stop-color="#4893ED"/>
<stop offset="1" stop-color="#14ED99"/>
</linearGradient>
<linearGradient id="paint54_linear_2648_431" x1="274.101" y1="238.717" x2="18.1952" y2="90.7512" gradientUnits="userSpaceOnUse">
<stop stop-color="#4253D1"/>
<stop offset="0.49" stop-color="#4893ED"/>
<stop offset="1" stop-color="#14ED99"/>
</linearGradient>
<linearGradient id="paint55_linear_2648_431" x1="274.102" y1="238.717" x2="18.1959" y2="90.7517" gradientUnits="userSpaceOnUse">
<stop stop-color="#4253D1"/>
<stop offset="0.49" stop-color="#4893ED"/>
<stop offset="1" stop-color="#14ED99"/>
</linearGradient>
<linearGradient id="paint56_linear_2648_431" x1="274.102" y1="238.717" x2="18.1958" y2="90.7517" gradientUnits="userSpaceOnUse">
<stop stop-color="#4253D1"/>
<stop offset="0.49" stop-color="#4893ED"/>
<stop offset="1" stop-color="#14ED99"/>
</linearGradient>
<linearGradient id="paint57_linear_2648_431" x1="274.102" y1="238.717" x2="18.1959" y2="90.7512" gradientUnits="userSpaceOnUse">
<stop stop-color="#4253D1"/>
<stop offset="0.49" stop-color="#4893ED"/>
<stop offset="1" stop-color="#14ED99"/>
</linearGradient>
<linearGradient id="paint58_linear_2648_431" x1="274.102" y1="238.717" x2="18.1957" y2="90.7513" gradientUnits="userSpaceOnUse">
<stop stop-color="#4253D1"/>
<stop offset="0.49" stop-color="#4893ED"/>
<stop offset="1" stop-color="#14ED99"/>
</linearGradient>
<linearGradient id="paint59_linear_2648_431" x1="274.102" y1="238.717" x2="18.1958" y2="90.7513" gradientUnits="userSpaceOnUse">
<stop stop-color="#4253D1"/>
<stop offset="0.49" stop-color="#4893ED"/>
<stop offset="1" stop-color="#14ED99"/>
</linearGradient>
<linearGradient id="paint60_linear_2648_431" x1="274.102" y1="238.717" x2="18.1958" y2="90.7514" gradientUnits="userSpaceOnUse">
<stop stop-color="#4253D1"/>
<stop offset="0.49" stop-color="#4893ED"/>
<stop offset="1" stop-color="#14ED99"/>
</linearGradient>
<linearGradient id="paint61_linear_2648_431" x1="274.103" y1="238.717" x2="18.1961" y2="90.7517" gradientUnits="userSpaceOnUse">
<stop stop-color="#4253D1"/>
<stop offset="0.49" stop-color="#4893ED"/>
<stop offset="1" stop-color="#14ED99"/>
</linearGradient>
<linearGradient id="paint62_linear_2648_431" x1="274.103" y1="238.717" x2="18.196" y2="90.7512" gradientUnits="userSpaceOnUse">
<stop stop-color="#4253D1"/>
<stop offset="0.49" stop-color="#4893ED"/>
<stop offset="1" stop-color="#14ED99"/>
</linearGradient>
<linearGradient id="paint63_linear_2648_431" x1="274.102" y1="238.717" x2="18.1958" y2="90.7516" gradientUnits="userSpaceOnUse">
<stop stop-color="#4253D1"/>
<stop offset="0.49" stop-color="#4893ED"/>
<stop offset="1" stop-color="#14ED99"/>
</linearGradient>
<linearGradient id="paint64_linear_2648_431" x1="274.102" y1="238.717" x2="18.1959" y2="90.7517" gradientUnits="userSpaceOnUse">
<stop stop-color="#4253D1"/>
<stop offset="0.49" stop-color="#4893ED"/>
<stop offset="1" stop-color="#14ED99"/>
</linearGradient>
<linearGradient id="paint65_linear_2648_431" x1="274.102" y1="238.717" x2="18.1962" y2="90.7514" gradientUnits="userSpaceOnUse">
<stop stop-color="#4253D1"/>
<stop offset="0.49" stop-color="#4893ED"/>
<stop offset="1" stop-color="#14ED99"/>
</linearGradient>
<linearGradient id="paint66_linear_2648_431" x1="274.102" y1="238.717" x2="18.1958" y2="90.7515" gradientUnits="userSpaceOnUse">
<stop stop-color="#4253D1"/>
<stop offset="0.49" stop-color="#4893ED"/>
<stop offset="1" stop-color="#14ED99"/>
</linearGradient>
<linearGradient id="paint67_linear_2648_431" x1="274.102" y1="238.717" x2="18.1959" y2="90.7515" gradientUnits="userSpaceOnUse">
<stop stop-color="#4253D1"/>
<stop offset="0.49" stop-color="#4893ED"/>
<stop offset="1" stop-color="#14ED99"/>
</linearGradient>
<linearGradient id="paint68_linear_2648_431" x1="274.102" y1="238.717" x2="18.1958" y2="90.7515" gradientUnits="userSpaceOnUse">
<stop stop-color="#4253D1"/>
<stop offset="0.49" stop-color="#4893ED"/>
<stop offset="1" stop-color="#14ED99"/>
</linearGradient>
<linearGradient id="paint69_linear_2648_431" x1="274.102" y1="238.717" x2="18.1959" y2="90.7516" gradientUnits="userSpaceOnUse">
<stop stop-color="#4253D1"/>
<stop offset="0.49" stop-color="#4893ED"/>
<stop offset="1" stop-color="#14ED99"/>
</linearGradient>
<linearGradient id="paint70_linear_2648_431" x1="274.102" y1="238.717" x2="18.1962" y2="90.7511" gradientUnits="userSpaceOnUse">
<stop stop-color="#4253D1"/>
<stop offset="0.49" stop-color="#4893ED"/>
<stop offset="1" stop-color="#14ED99"/>
</linearGradient>
<linearGradient id="paint71_linear_2648_431" x1="274.102" y1="238.717" x2="18.1956" y2="90.7511" gradientUnits="userSpaceOnUse">
<stop stop-color="#4253D1"/>
<stop offset="0.49" stop-color="#4893ED"/>
<stop offset="1" stop-color="#14ED99"/>
</linearGradient>
<linearGradient id="paint72_linear_2648_431" x1="274.102" y1="238.717" x2="18.1959" y2="90.7517" gradientUnits="userSpaceOnUse">
<stop stop-color="#4253D1"/>
<stop offset="0.49" stop-color="#4893ED"/>
<stop offset="1" stop-color="#14ED99"/>
</linearGradient>
<linearGradient id="paint73_linear_2648_431" x1="274.102" y1="238.717" x2="18.1958" y2="90.7512" gradientUnits="userSpaceOnUse">
<stop stop-color="#4253D1"/>
<stop offset="0.49" stop-color="#4893ED"/>
<stop offset="1" stop-color="#14ED99"/>
</linearGradient>
<linearGradient id="paint74_linear_2648_431" x1="274.102" y1="238.717" x2="18.1959" y2="90.7513" gradientUnits="userSpaceOnUse">
<stop stop-color="#4253D1"/>
<stop offset="0.49" stop-color="#4893ED"/>
<stop offset="1" stop-color="#14ED99"/>
</linearGradient>
<linearGradient id="paint75_linear_2648_431" x1="274.102" y1="238.717" x2="18.1956" y2="90.7511" gradientUnits="userSpaceOnUse">
<stop stop-color="#4253D1"/>
<stop offset="0.49" stop-color="#4893ED"/>
<stop offset="1" stop-color="#14ED99"/>
</linearGradient>
<linearGradient id="paint76_linear_2648_431" x1="274.102" y1="238.717" x2="18.1955" y2="90.7511" gradientUnits="userSpaceOnUse">
<stop stop-color="#4253D1"/>
<stop offset="0.49" stop-color="#4893ED"/>
<stop offset="1" stop-color="#14ED99"/>
</linearGradient>
<linearGradient id="paint77_linear_2648_431" x1="274.102" y1="238.717" x2="18.1953" y2="90.7519" gradientUnits="userSpaceOnUse">
<stop stop-color="#4253D1"/>
<stop offset="0.49" stop-color="#4893ED"/>
<stop offset="1" stop-color="#14ED99"/>
</linearGradient>
<linearGradient id="paint78_linear_2648_431" x1="274.101" y1="238.717" x2="18.1949" y2="90.7514" gradientUnits="userSpaceOnUse">
<stop stop-color="#4253D1"/>
<stop offset="0.49" stop-color="#4893ED"/>
<stop offset="1" stop-color="#14ED99"/>
</linearGradient>
<linearGradient id="paint79_linear_2648_431" x1="274.103" y1="238.717" x2="18.1967" y2="90.7512" gradientUnits="userSpaceOnUse">
<stop stop-color="#4253D1"/>
<stop offset="0.49" stop-color="#4893ED"/>
<stop offset="1" stop-color="#14ED99"/>
</linearGradient>
</defs>
</svg>
